<?xml version="1.0" encoding="UTF-8"?>
<svg version="1.1" xmlns="http://www.w3.org/2000/svg" width="1024" height="1024">
<path d="M0 0 C1.87109375 0.078125 1.87109375 0.078125 4 1 C5.59765625 3.546875 5.59765625 3.546875 7.0625 6.75 C8.87204665 10.6474851 10.73369069 14.34872389 13 18 C14.23581945 20.03764662 15.46479002 22.07946003 16.6875 24.125 C17.62142578 25.67574219 17.62142578 25.67574219 18.57421875 27.2578125 C20 30 20 30 20 33 C20.66 33 21.32 33 22 33 C22.49886719 33.88816406 22.99773437 34.77632813 23.51171875 35.69140625 C28.18535259 44.0082315 32.87056262 52.31848771 37.5625 60.625 C38.11663574 61.60766846 38.67077148 62.59033691 39.24169922 63.6027832 C41.67282166 67.90890072 44.11102222 72.2090319 46.609375 76.4765625 C47.17676392 77.44988525 47.17676392 77.44988525 47.75561523 78.44287109 C48.73415747 80.11604494 49.72026945 81.78478547 50.70703125 83.453125 C52 86 52 86 52 89 C52.66 89 53.32 89 54 89 C54.515625 90.0725 55.03125 91.145 55.5625 92.25 C58.42417942 97.99402078 61.72696857 103.4836549 65 109 C67.76451502 106.54345442 69.30055407 103.88470483 71.03125 100.6328125 C71.59457031 99.58222656 72.15789062 98.53164063 72.73828125 97.44921875 C73.61033203 95.80373047 73.61033203 95.80373047 74.5 94.125 C75.65529308 91.96042649 76.811511 89.79634629 77.96875 87.6328125 C78.47857422 86.67262207 78.98839844 85.71243164 79.51367188 84.72314453 C80.94338282 82.10372996 82.45116883 79.55034303 84 77 C87.59788145 70.74937593 91.13769173 64.46551086 94.6875 58.1875 C95.28111328 57.13884766 95.87472656 56.09019531 96.48632812 55.00976562 C97.33420898 53.51026367 97.33420898 53.51026367 98.19921875 51.98046875 C98.71315186 51.07192139 99.22708496 50.16337402 99.7565918 49.22729492 C100.53418141 47.83441253 101.2865903 46.42681939 102 45 C102.66 45 103.32 45 104 45 C104.10957031 44.27039063 104.21914063 43.54078125 104.33203125 42.7890625 C105.04015105 39.83235175 106.0600932 37.92930254 107.6875 35.375 C111.39858671 29.40499095 114.8554533 23.28909341 118 17 C118.66 17 119.32 17 120 17 C120.13728516 15.95779297 120.13728516 15.95779297 120.27734375 14.89453125 C121.15515498 11.3785414 122.69051967 8.78477654 124.5625 5.6875 C125.20316406 4.61886719 125.84382812 3.55023438 126.50390625 2.44921875 C126.99761719 1.64097656 127.49132812 0.83273437 128 0 C129.8203125 0.15625 129.8203125 0.15625 132 1 C133.4921875 3.40625 133.4921875 3.40625 134.875 6.5 C136.70535181 10.39524619 138.54734769 14.02477376 141 17.5625 C144.41480047 22.49300825 147.18218324 27.71272295 150 33 C151.65034723 36.00913311 153.32461314 39.00474604 155 42 C155.32371582 42.57911133 155.64743164 43.15822266 155.98095703 43.75488281 C160.31506487 51.50285607 164.69339665 59.21837947 169.1875 66.875 C171.72534255 71.25059061 174.19210088 75.66509285 176.6640625 80.078125 C178.90617943 84.07427899 181.18039142 88.04807426 183.5 92 C186.62362119 97.32172499 189.64857948 102.69477947 192.6640625 108.078125 C194.90617943 112.07427899 197.18039142 116.04807426 199.5 120 C204.74466065 128.94031687 209.78549206 137.998418 214.8125 147.0625 C215.19277344 147.74699219 215.57304688 148.43148437 215.96484375 149.13671875 C216.93489583 150.8828125 217.90494792 152.62890625 218.875 154.375 C220.5942105 157.39055068 222.47863747 160.28057586 224.375 163.1875 C227.48522185 168.02193866 230.02843841 172.99379083 232.53515625 178.16015625 C234.28530919 181.55311942 236.34460649 184.61412697 238.51171875 187.75 C240.660037 190.99785121 242.4604593 194.40473974 244.296875 197.8359375 C246.34582897 201.64248042 248.44688343 205.41769764 250.5625 209.1875 C250.94889648 209.8774707 251.33529297 210.56744141 251.73339844 211.27832031 C253.74958687 214.85709789 255.82428658 218.36616001 258.0625 221.8125 C260 225 260 225 260 228 C252.46459785 228.34901021 244.93003954 228.61476596 237.38837528 228.77718258 C233.88482121 228.85519239 230.38682614 228.96071027 226.88647461 229.1315918 C204.3004031 230.20586293 204.3004031 230.20586293 198.88748169 226.58807373 C195.70999184 223.15860832 194.09232891 219.34688666 192.69714355 214.93559265 C191.53991892 211.72260231 189.69108527 209.09376304 187.8125 206.25 C184.92357289 201.5697106 182.21451985 196.83317578 179.61328125 191.98828125 C174.56239368 182.63252098 169.27299364 173.40910997 163.875 164.25 C163.45847168 163.54262695 163.04194336 162.83525391 162.61279297 162.10644531 C160.69305975 158.85160769 158.76377001 155.60322229 156.8125 152.3671875 C156.173125 151.29726563 155.53375 150.22734375 154.875 149.125 C154.31554687 148.19945312 153.75609375 147.27390625 153.1796875 146.3203125 C152 144 152 144 152 141 C151.34 141 150.68 141 150 141 C149.731875 140.51273438 149.46375 140.02546875 149.1875 139.5234375 C141.89408417 126.26008542 141.89408417 126.26008542 134.0625 113.3125 C132 110 132 110 131 107 C130.34 107 129.68 107 129 107 C128.59523438 107.82886719 128.19046875 108.65773438 127.7734375 109.51171875 C125.82605659 113.34213979 123.7456294 117.07630103 121.625 120.8125 C120.8174381 122.23943043 120.01014418 123.66651256 119.203125 125.09375 C118.81962891 125.77179688 118.43613281 126.44984375 118.04101562 127.1484375 C116.79833829 129.35867787 115.58578327 131.58465879 114.375 133.8125 C112.57536042 137.07782543 110.59868722 140.18945903 108.5625 143.3125 C105.44713242 148.13826547 102.84270236 153.09751362 100.359375 158.2734375 C98.12589907 162.75322544 95.43017006 166.88229253 92.6875 171.0625 C89.54186057 175.97714596 86.8821022 181.01539372 84.359375 186.2734375 C82.12037582 190.76430367 79.41714885 194.92071326 76.6875 199.125 C73.18096376 204.60862583 70.03829059 210.24616764 67 216 C66.01 216 65.02 216 64 216 C63.68546875 215.43152344 63.3709375 214.86304688 63.046875 214.27734375 C59.49893402 207.87608879 55.91953685 201.50852181 52.125 195.25 C50.00334098 191.7351714 47.99899302 188.18245095 46.0625 184.5625 C44.01794584 180.76699606 41.84240924 177.11915099 39.5 173.5 C36.0375242 168.14612773 33.00062875 162.62196453 30 157 C22.49010167 143.22916989 22.49010167 143.22916989 14.375 129.8125 C11.88457914 125.90136925 9.69181939 121.84577119 7.4921875 117.765625 C5.36504026 113.82316363 3.18287776 109.91179422 1 106 C-2.03940158 108.80459802 -3.98224851 111.45712564 -5.875 115.125 C-7.82393351 118.81720068 -9.82517817 122.43602496 -12 126 C-14.09803323 129.45301303 -16.08203337 132.9437702 -18 136.5 C-20.3527694 140.8624266 -22.84997924 145.10839917 -25.42431641 149.34277344 C-26.91749222 151.8608592 -28.32515897 154.40593034 -29.7109375 156.984375 C-33.23399699 163.47341973 -36.92219351 169.86229 -40.625 176.25 C-41.92979861 178.50514405 -43.23448924 180.76035058 -44.5390625 183.015625 C-45.14637207 184.06459961 -45.75368164 185.11357422 -46.37939453 186.19433594 C-47.64540832 188.38611515 -48.90484311 190.58112534 -50.15625 192.78125 C-52.35885107 196.62646882 -54.61683296 200.43725685 -56.875 204.25 C-60.29525229 210.03507294 -63.61719339 215.85120056 -66.74609375 221.80078125 C-69.16879347 226.04993995 -69.16879347 226.04993995 -71 228 C-73.56266785 228.48101807 -73.56266785 228.48101807 -76.66479492 228.45410156 C-78.40626045 228.45364838 -78.40626045 228.45364838 -80.1829071 228.45318604 C-81.43610245 228.43254089 -82.68929779 228.41189575 -83.98046875 228.390625 C-85.26359451 228.38496521 -86.54672028 228.37930542 -87.86872864 228.37347412 C-91.27700045 228.35821488 -94.68458839 228.31893221 -98.09259033 228.2746582 C-101.5713984 228.23371078 -105.05031718 228.21546434 -108.52929688 228.1953125 C-115.35314518 228.15243703 -122.17653975 228.0841831 -129 228 C-128.41604181 224.18954255 -127.88648488 221.27153741 -125.85546875 217.9765625 C-125.42556641 217.265 -124.99566406 216.5534375 -124.55273438 215.8203125 C-123.87694336 214.73363281 -123.87694336 214.73363281 -123.1875 213.625 C-119.85591503 208.18487888 -116.78149329 202.74452927 -114 197 C-113.34 197 -112.68 197 -112 197 C-111.87109375 196.40864258 -111.7421875 195.81728516 -111.609375 195.20800781 C-110.65915123 191.76496944 -108.77633987 188.82223695 -107 185.75 C-106.18216662 184.31647758 -105.36446204 182.88288168 -104.546875 181.44921875 C-104.12599609 180.71493652 -103.70511719 179.9806543 -103.27148438 179.22412109 C-101.24576725 175.68067198 -99.24865604 172.12125805 -97.25 168.5625 C-96.68079834 167.55231812 -96.68079834 167.55231812 -96.10009766 166.52172852 C-94.16713323 163.08984346 -92.2585494 159.6468293 -90.375 156.1875 C-88.56550229 152.91050586 -86.59273598 149.76987535 -84.5625 146.625 C-81.08618171 141.22577246 -78.02257236 135.66200174 -75 130 C-73.34924084 126.99109116 -71.67469374 123.995642 -70 121 C-69.69223633 120.44747559 -69.38447266 119.89495117 -69.06738281 119.32568359 C-62.17830755 106.96394788 -55.08462751 94.72809291 -47.75 82.625 C-45.19686823 78.39368611 -42.84553042 74.06775431 -40.5 69.71875 C-39.05827379 67.10562124 -37.54958452 64.55035785 -36 62 C-33.43697646 57.7746537 -31.05277936 53.47576681 -28.703125 49.12890625 C-24.0646726 40.60734575 -19.41367236 32.07802543 -14.171875 23.91015625 C-12.15845146 20.62827589 -10.38130885 17.21636564 -8.5546875 13.828125 C-2.11656442 2.11656442 -2.11656442 2.11656442 0 0 Z " fill="#0F6FB4" transform="translate(448,275)"/>
<path d="M0 0 C1.87109375 0.078125 1.87109375 0.078125 4 1 C5.59765625 3.546875 5.59765625 3.546875 7.0625 6.75 C8.87204665 10.6474851 10.73369069 14.34872389 13 18 C14.23581945 20.03764662 15.46479002 22.07946003 16.6875 24.125 C17.62142578 25.67574219 17.62142578 25.67574219 18.57421875 27.2578125 C20 30 20 30 20 33 C20.66 33 21.32 33 22 33 C22.49886719 33.88816406 22.99773437 34.77632813 23.51171875 35.69140625 C28.18535259 44.0082315 32.87056262 52.31848771 37.5625 60.625 C38.11663574 61.60766846 38.67077148 62.59033691 39.24169922 63.6027832 C41.67282166 67.90890072 44.11102222 72.2090319 46.609375 76.4765625 C47.17676392 77.44988525 47.17676392 77.44988525 47.75561523 78.44287109 C48.73415747 80.11604494 49.72026945 81.78478547 50.70703125 83.453125 C52 86 52 86 52 89 C52.66 89 53.32 89 54 89 C54.5775 90.175625 55.155 91.35125 55.75 92.5625 C57.14629697 95.39012648 58.64655946 98.07404672 60.3125 100.75 C62 104 62 104 61.625 106.1875 C61.41875 106.785625 61.2125 107.38375 61 108 C61.33 108.639375 61.66 109.27875 62 109.9375 C63.38203653 112.78795035 62.86492893 113.94558915 62 117 C60.74656575 119.63820784 59.4552049 122.18789309 58.0625 124.75 C57.46840332 125.85794922 57.46840332 125.85794922 56.86230469 126.98828125 C53.15989989 133.83150639 49.2224084 140.53062983 45.2421875 147.21484375 C42.73553443 151.42715173 40.34717632 155.69684342 38 160 C36.078125 159.69140625 36.078125 159.69140625 34 159 C32.75 155.9375 32.75 155.9375 32 153 C31.01 153 30.02 153 29 153 C28.67 151.02 28.34 149.04 28 147 C27.01 146.67 26.02 146.34 25 146 C25 145.34 25 144.68 25 144 C24.01 143.67 23.02 143.34 22 143 C20.60546875 141.1015625 20.60546875 141.1015625 19.1875 138.625 C18.66542969 137.72007812 18.14335937 136.81515625 17.60546875 135.8828125 C15.5452162 132.18338092 13.52050794 128.46587694 11.51171875 124.73828125 C9.54604277 121.17771572 7.43594002 117.71347609 5.32421875 114.23828125 C3.73355702 111.54964063 2.33674864 108.82202491 1 106 C-2.03940158 108.80459802 -3.98224851 111.45712564 -5.875 115.125 C-7.82393351 118.81720068 -9.82517817 122.43602496 -12 126 C-14.09803323 129.45301303 -16.08203337 132.9437702 -18 136.5 C-20.3527694 140.8624266 -22.84997924 145.10839917 -25.42431641 149.34277344 C-26.91749222 151.8608592 -28.32515897 154.40593034 -29.7109375 156.984375 C-33.23399699 163.47341973 -36.92219351 169.86229 -40.625 176.25 C-41.92979861 178.50514405 -43.23448924 180.76035058 -44.5390625 183.015625 C-45.14637207 184.06459961 -45.75368164 185.11357422 -46.37939453 186.19433594 C-47.64540832 188.38611515 -48.90484311 190.58112534 -50.15625 192.78125 C-52.35885107 196.62646882 -54.61683296 200.43725685 -56.875 204.25 C-60.29525229 210.03507294 -63.61719339 215.85120056 -66.74609375 221.80078125 C-69.16879347 226.04993995 -69.16879347 226.04993995 -71 228 C-73.56266785 228.48101807 -73.56266785 228.48101807 -76.66479492 228.45410156 C-78.40626045 228.45364838 -78.40626045 228.45364838 -80.1829071 228.45318604 C-81.43610245 228.43254089 -82.68929779 228.41189575 -83.98046875 228.390625 C-85.26359451 228.38496521 -86.54672028 228.37930542 -87.86872864 228.37347412 C-91.27700045 228.35821488 -94.68458839 228.31893221 -98.09259033 228.2746582 C-101.5713984 228.23371078 -105.05031718 228.21546434 -108.52929688 228.1953125 C-115.35314518 228.15243703 -122.17653975 228.0841831 -129 228 C-128.41604181 224.18954255 -127.88648488 221.27153741 -125.85546875 217.9765625 C-125.42556641 217.265 -124.99566406 216.5534375 -124.55273438 215.8203125 C-123.87694336 214.73363281 -123.87694336 214.73363281 -123.1875 213.625 C-119.85591503 208.18487888 -116.78149329 202.74452927 -114 197 C-113.34 197 -112.68 197 -112 197 C-111.87109375 196.40864258 -111.7421875 195.81728516 -111.609375 195.20800781 C-110.65915123 191.76496944 -108.77633987 188.82223695 -107 185.75 C-106.18216662 184.31647758 -105.36446204 182.88288168 -104.546875 181.44921875 C-104.12599609 180.71493652 -103.70511719 179.9806543 -103.27148438 179.22412109 C-101.24576725 175.68067198 -99.24865604 172.12125805 -97.25 168.5625 C-96.68079834 167.55231812 -96.68079834 167.55231812 -96.10009766 166.52172852 C-94.16713323 163.08984346 -92.2585494 159.6468293 -90.375 156.1875 C-88.56550229 152.91050586 -86.59273598 149.76987535 -84.5625 146.625 C-81.08618171 141.22577246 -78.02257236 135.66200174 -75 130 C-73.34924084 126.99109116 -71.67469374 123.995642 -70 121 C-69.69223633 120.44747559 -69.38447266 119.89495117 -69.06738281 119.32568359 C-62.17830755 106.96394788 -55.08462751 94.72809291 -47.75 82.625 C-45.19686823 78.39368611 -42.84553042 74.06775431 -40.5 69.71875 C-39.05827379 67.10562124 -37.54958452 64.55035785 -36 62 C-33.43697646 57.7746537 -31.05277936 53.47576681 -28.703125 49.12890625 C-24.0646726 40.60734575 -19.41367236 32.07802543 -14.171875 23.91015625 C-12.15845146 20.62827589 -10.38130885 17.21636564 -8.5546875 13.828125 C-2.11656442 2.11656442 -2.11656442 2.11656442 0 0 Z " fill="#008CC3" transform="translate(448,275)"/>
<path d="M0 0 C9.9 0 19.8 0 30 0 C36.33101602 6.33101602 40.46507082 14.63370069 44.640625 22.4921875 C46.99587398 26.83721579 49.62237002 30.98158141 52.3125 35.125 C55.36714302 39.89464386 58.11137214 44.76883941 60.73828125 49.78515625 C61.93293329 52.10920051 61.93293329 52.10920051 64 54 C64 54.99 64 55.98 64 57 C64.66 57 65.32 57 66 57 C66.309375 56.05125 66.61875 55.1025 66.9375 54.125 C68 51 68 51 69 49 C69.66 49 70.32 49 71 49 C71.36738281 47.74316406 71.36738281 47.74316406 71.7421875 46.4609375 C73.161461 42.55573153 75.01857766 39.19028729 77.125 35.625 C77.49753906 34.98433594 77.87007813 34.34367188 78.25390625 33.68359375 C79.16434002 32.11951523 80.08148191 30.55934466 81 29 C81.66 29 82.32 29 83 29 C83.4640625 27.576875 83.4640625 27.576875 83.9375 26.125 C85 23 85 23 86 21 C86.66 21 87.32 21 88 21 C88.12383057 20.41951904 88.24766113 19.83903809 88.37524414 19.2409668 C89.43115576 15.45346668 91.5047441 12.21523926 93.4375 8.8125 C94.04948242 7.70745117 94.04948242 7.70745117 94.67382812 6.58007812 C95.26647461 5.52916992 95.26647461 5.52916992 95.87109375 4.45703125 C96.23130615 3.81741455 96.59151855 3.17779785 96.96264648 2.51879883 C98 1 98 1 100 0 C102.23919154 -0.09771688 104.4813345 -0.13077374 106.72265625 -0.1328125 C107.38333603 -0.13376923 108.04401581 -0.13472595 108.72471619 -0.13571167 C110.12092179 -0.13639216 111.51713056 -0.134547 112.91333008 -0.13037109 C115.05752614 -0.12501243 117.20151353 -0.13032479 119.34570312 -0.13671875 C120.7005213 -0.13605811 122.05533934 -0.13477725 123.41015625 -0.1328125 C124.64902588 -0.13168457 125.88789551 -0.13055664 127.16430664 -0.12939453 C130 0 130 0 131 1 C131.09766396 2.41445992 131.12631677 3.83375946 131.12698364 5.25158691 C131.12980347 6.16865921 131.13262329 7.08573151 131.13552856 8.03059387 C131.13249222 9.55169014 131.13249222 9.55169014 131.12939453 11.10351562 C131.13202301 12.69603401 131.13202301 12.69603401 131.13470459 14.32072449 C131.13912548 17.84924935 131.13618428 21.37772457 131.1328125 24.90625 C131.13348547 27.34623219 131.13445544 29.78621432 131.13571167 32.22619629 C131.13718897 37.34758134 131.13503307 42.46894899 131.13037109 47.59033203 C131.1246738 54.17162715 131.12795263 60.75288149 131.13394356 67.33417511 C131.13754832 72.37486074 131.13641098 77.41553662 131.13381577 82.45622253 C131.13314626 84.88364161 131.13397573 87.31106156 131.13629532 89.73847961 C131.13882045 93.12450523 131.13498322 96.51046379 131.12939453 99.89648438 C131.13141876 100.91054855 131.13344299 101.92461273 131.13552856 102.96940613 C131.13270874 103.88647842 131.12988892 104.80355072 131.12698364 105.74841309 C131.1264181 106.95078739 131.1264181 106.95078739 131.12584114 108.17745209 C131 110 131 110 130 111 C121.42 111 112.84 111 104 111 C103.67 89.22 103.34 67.44 103 45 C98.16892305 52.17564359 98.16892305 52.17564359 93.9375 59.5625 C92.1043166 62.97866854 90.25095715 66.36626321 88.25 69.6875 C87.86328125 70.33074219 87.4765625 70.97398437 87.078125 71.63671875 C86.72234375 72.08660156 86.3665625 72.53648437 86 73 C85.34 73 84.68 73 84 73 C83.83564453 73.86431641 83.83564453 73.86431641 83.66796875 74.74609375 C82.9167874 77.2807817 81.84359135 78.91254233 80.3125 81.0625 C77.26748042 85.47227535 74.75504768 90.05474643 72.296875 94.8125 C71 97 71 97 69 98 C64.93119799 98.47914464 61.27217211 98.81277663 57.75 96.5625 C55.73729396 93.6153233 54.03295377 90.57584907 52.3515625 87.4296875 C50.14341441 83.46012649 47.54236542 79.76030487 45 76 C44.03203006 74.54804508 43.07310225 73.09000546 42.125 71.625 C41.71507812 70.99851562 41.30515625 70.37203125 40.8828125 69.7265625 C40 68 40 68 40 65 C39.34 65 38.68 65 38 65 C36.4140625 62.62109375 36.4140625 62.62109375 34.625 59.4375 C33.74714844 57.88869141 33.74714844 57.88869141 32.8515625 56.30859375 C32.24054688 55.21675781 31.62953125 54.12492188 31 53 C30.29606369 51.7636606 29.5908218 50.52806364 28.88427734 49.29321289 C28.26246582 48.20645264 27.6406543 47.11969238 27 46 C26.9845388 47.1993644 26.9845388 47.1993644 26.96876526 48.42295837 C26.87095918 55.94267296 26.76846935 63.46230193 26.66066074 70.98187923 C26.60539645 74.8481601 26.551971 78.71444848 26.50268555 82.58081055 C26.4550935 86.30910087 26.40275285 90.03729652 26.34705925 93.76547432 C26.32661222 95.19086933 26.30790309 96.61629032 26.29092598 98.04173088 C26.26693404 100.03170541 26.23629864 102.02159655 26.20532227 104.01147461 C26.18977798 105.14620712 26.1742337 106.28093964 26.15821838 107.45005798 C26 110 26 110 25 111 C16.75 111 8.5 111 0 111 C0 74.37 0 37.74 0 0 Z " fill="#FEFEFD" transform="translate(316,543)"/>
<path d="M0 0 C1.16273438 -0.01224609 2.32546875 -0.02449219 3.5234375 -0.03710938 C4.6371875 -0.03904297 5.7509375 -0.04097656 6.8984375 -0.04296875 C7.92372559 -0.04707764 8.94901367 -0.05118652 10.00537109 -0.05541992 C12.625 0.1875 12.625 0.1875 15.625 2.1875 C15.625 3.1775 15.625 4.1675 15.625 5.1875 C16.44677734 5.47367188 16.44677734 5.47367188 17.28515625 5.765625 C20.70191345 7.84191819 22.68303323 10.76924163 25.0625 13.9375 C25.99783049 15.16212134 26.93402242 16.38608523 27.87109375 17.609375 C28.55147705 18.5055957 28.55147705 18.5055957 29.24560547 19.41992188 C30.60706087 21.16451251 32.02762124 22.84001555 33.47265625 24.515625 C35.625 27.1875 35.625 27.1875 35.625 29.1875 C36.285 29.1875 36.945 29.1875 37.625 29.1875 C39.12452916 31.03466068 40.55021087 32.94212154 41.9375 34.875 C44.29309997 38.15044375 46.51736562 41.08317744 49.41796875 43.89453125 C51.625 46.1875 51.625 46.1875 51.625 49.1875 C52.44291016 49.46980469 52.44291016 49.46980469 53.27734375 49.7578125 C56.73805102 51.8653314 58.76864014 54.85693943 61.1875 58.0625 C61.66896484 58.68769531 62.15042969 59.31289063 62.64648438 59.95703125 C64.99702211 63.01564019 67.31094382 66.10124606 69.625 69.1875 C69.62277939 68.33781143 69.62055878 67.48812286 69.61827087 66.61268616 C69.59826986 58.62213275 69.58302684 50.6315877 69.57318783 42.64101505 C69.56795954 38.53255715 69.56086287 34.42411986 69.54956055 30.31567383 C69.53872975 26.35403172 69.53272276 22.39240948 69.53012276 18.43075371 C69.52826886 16.91601689 69.5246489 15.40128121 69.51926994 13.88655281 C69.51205693 11.77208187 69.51100917 9.65769406 69.51147461 7.54321289 C69.509254 6.33742081 69.50703339 5.13162872 69.50474548 3.88929749 C69.625 1.1875 69.625 1.1875 70.625 0.1875 C72.46659023 0.08790379 74.31196967 0.05669589 76.15625 0.0546875 C77.27644531 0.05339844 78.39664063 0.05210937 79.55078125 0.05078125 C80.73027344 0.05464844 81.90976562 0.05851563 83.125 0.0625 C84.89423828 0.05669922 84.89423828 0.05669922 86.69921875 0.05078125 C88.37951172 0.05271484 88.37951172 0.05271484 90.09375 0.0546875 C91.12951172 0.05581543 92.16527344 0.05694336 93.23242188 0.05810547 C95.625 0.1875 95.625 0.1875 96.625 1.1875 C96.72266396 2.60195992 96.75131677 4.02125946 96.75198364 5.43908691 C96.75621338 6.81469536 96.75621338 6.81469536 96.76052856 8.21809387 C96.75749222 9.73919014 96.75749222 9.73919014 96.75439453 11.29101562 C96.75702301 12.88353401 96.75702301 12.88353401 96.75970459 14.50822449 C96.76412548 18.03674935 96.76118428 21.56522457 96.7578125 25.09375 C96.75848547 27.53373219 96.75945544 29.97371432 96.76071167 32.41369629 C96.76218897 37.53508134 96.76003307 42.65644899 96.75537109 47.77783203 C96.7496738 54.35912715 96.75295263 60.94038149 96.75894356 67.52167511 C96.76254832 72.56236074 96.76141098 77.60303662 96.75881577 82.64372253 C96.75814626 85.07114161 96.75897573 87.49856156 96.76129532 89.92597961 C96.76382045 93.31200523 96.75998322 96.69796379 96.75439453 100.08398438 C96.75641876 101.09804855 96.75844299 102.11211273 96.76052856 103.15690613 C96.75770874 104.07397842 96.75488892 104.99105072 96.75198364 105.93591309 C96.7514181 107.13828739 96.7514181 107.13828739 96.75084114 108.36495209 C96.625 110.1875 96.625 110.1875 95.625 111.1875 C91.69478175 111.46856448 87.75156889 111.41933715 83.8125 111.4375 C82.15250977 111.4684375 82.15250977 111.4684375 80.45898438 111.5 C79.39357422 111.50515625 78.32816406 111.5103125 77.23046875 111.515625 C76.25231201 111.5249707 75.27415527 111.53431641 74.26635742 111.54394531 C71.18698812 111.12839127 69.80121354 110.38658037 67.625 108.1875 C67.625 107.1975 67.625 106.2075 67.625 105.1875 C67.06683594 104.98769531 66.50867188 104.78789063 65.93359375 104.58203125 C62.72124794 102.64157871 60.85359195 99.86374249 58.6875 96.875 C55.58184934 92.63653086 52.41839098 88.85528201 48.625 85.1875 C43.625 79.7183642 43.625 79.7183642 43.625 77.1875 C43.07714844 76.99800781 42.52929688 76.80851563 41.96484375 76.61328125 C38.53769753 74.52495342 36.56464094 71.5630501 34.1875 68.375 C31.52362647 64.83917896 28.9638779 61.51615113 25.77734375 58.42578125 C23.625 56.1875 23.625 56.1875 23.625 53.1875 C23.068125 53.001875 22.51125 52.81625 21.9375 52.625 C19.51351724 51.11819991 18.58056738 49.91421695 16.98046875 47.59765625 C16.53727295 46.96093994 16.09407715 46.32422363 15.63745117 45.66821289 C15.30334229 45.17957764 14.9692334 44.69094238 14.625 44.1875 C14.61469254 45.01213242 14.60438507 45.83676483 14.59376526 46.68638611 C14.4959612 54.44155684 14.39347166 62.19664453 14.28566074 69.95168209 C14.23039527 73.93903216 14.17696963 77.92638952 14.12768555 81.91381836 C14.08009524 85.75881601 14.02775464 89.60372182 13.97205925 93.44861031 C13.95161143 94.91866342 13.93290244 96.38874174 13.91592598 97.85883904 C13.89193536 99.91111276 13.8618741 101.96321147 13.83032227 104.01538086 C13.81477798 105.18564316 13.7992337 106.35590546 13.78321838 107.56163025 C13.625 110.1875 13.625 110.1875 12.625 111.1875 C10.77130389 111.27487645 8.91432459 111.29448153 7.05859375 111.28515625 C5.93388672 111.28193359 4.80917969 111.27871094 3.65039062 111.27539062 C2.46638672 111.26701172 1.28238281 111.25863281 0.0625 111.25 C-1.12537109 111.24548828 -2.31324219 111.24097656 -3.53710938 111.23632812 C-6.48312226 111.22449675 -9.42903681 111.20801287 -12.375 111.1875 C-13.54750267 108.84249465 -13.50074165 107.4668464 -13.50198364 104.85362244 C-13.50480347 103.94358963 -13.50762329 103.03355682 -13.51052856 102.09594727 C-13.50850433 101.0948291 -13.5064801 100.09371094 -13.50439453 99.06225586 C-13.50614685 98.01018448 -13.50789917 96.9581131 -13.50970459 95.87416077 C-13.51411944 92.3835385 -13.51118659 88.89296656 -13.5078125 85.40234375 C-13.50848559 82.98621104 -13.50945566 80.5700784 -13.51071167 78.15394592 C-13.5121881 73.08561561 -13.51003563 68.01730289 -13.50537109 62.94897461 C-13.4996708 56.43608927 -13.50295507 49.92324512 -13.50894356 43.41036129 C-13.51254803 38.42028999 -13.51141116 33.43022853 -13.50881577 28.44015694 C-13.50814634 26.03785764 -13.50897546 23.63555747 -13.51129532 21.2332592 C-13.51382031 17.88326505 -13.50998355 14.53333868 -13.50439453 11.18334961 C-13.50641876 10.18020721 -13.50844299 9.17706482 -13.51052856 8.14352417 C-13.50770874 7.23631119 -13.50488892 6.32909821 -13.50198364 5.39439392 C-13.50160662 4.60148421 -13.50122959 3.8085745 -13.50084114 2.99163723 C-13.14279123 -2.14159009 -3.79613762 0.00209038 0 0 Z " fill="#FEFEFD" transform="translate(612.375,542.8125)"/>
<path d="M0 0 C1.12019531 -0.00128906 2.24039062 -0.00257813 3.39453125 -0.00390625 C4.57402344 -0.00003906 5.75351562 0.00382813 6.96875 0.0078125 C8.73798828 0.00201172 8.73798828 0.00201172 10.54296875 -0.00390625 C12.22326172 -0.00197266 12.22326172 -0.00197266 13.9375 0 C14.97326172 0.00112793 16.00902344 0.00225586 17.07617188 0.00341797 C19.46875 0.1328125 19.46875 0.1328125 20.46875 1.1328125 C20.5616226 2.54506296 20.58621772 3.96190184 20.58227539 5.37719727 C20.58219986 6.27805557 20.58212433 7.17891388 20.58204651 8.10707092 C20.57688522 9.08622971 20.57172394 10.06538849 20.56640625 11.07421875 C20.5649913 12.07162582 20.56357635 13.0690329 20.56211853 14.09666443 C20.55650114 17.29624374 20.54394571 20.49575419 20.53125 23.6953125 C20.52623724 25.85872295 20.52167395 28.02213449 20.51757812 30.18554688 C20.50652607 35.50132575 20.48977104 40.81706421 20.46875 46.1328125 C24.74346369 42.43929246 28.97868388 38.75423732 32.94140625 34.72265625 C34.07352539 33.57893555 34.07352539 33.57893555 35.22851562 32.41210938 C35.98841797 31.63931641 36.74832031 30.86652344 37.53125 30.0703125 C42.20228035 25.32044619 46.83856256 20.64903976 52.00146484 16.43017578 C54.44876564 14.26628952 56.38631308 11.64241597 58.46875 9.1328125 C60.41139711 7.38746548 62.43629977 5.77607013 64.46875 4.1328125 C65.04592773 3.43188477 65.62310547 2.73095703 66.21777344 2.00878906 C69.34101525 -0.59413828 71.39857219 -0.32600407 75.421875 -0.2578125 C76.08209656 -0.25215271 76.74231812 -0.24649292 77.42254639 -0.24066162 C79.52203263 -0.2183498 81.6197837 -0.16817064 83.71875 -0.1171875 C85.1458086 -0.09711544 86.57289408 -0.07886589 88 -0.0625 C91.49014293 -0.01850443 94.97927699 0.05048374 98.46875 0.1328125 C98.96375 1.1228125 98.96375 1.1228125 99.46875 2.1328125 C95.78224869 6.66903929 91.97056793 10.38129756 87.46875 14.1328125 C86.44789468 15.28127474 85.44843065 16.44903172 84.46875 17.6328125 C81.76727543 20.89709428 78.72652945 23.41799629 75.46875 26.1328125 C74.44789468 27.28127474 73.44843065 28.44903172 72.46875 29.6328125 C69.76727543 32.89709428 66.72652945 35.41799629 63.46875 38.1328125 C61.8771314 39.8754606 60.36099943 41.66070713 58.86328125 43.484375 C57.46875 45.1328125 57.46875 45.1328125 55.8046875 46.67578125 C54.18823588 48.13509707 54.18823588 48.13509707 54.28125 50.8203125 C54.3740625 51.965 54.3740625 51.965 54.46875 53.1328125 C55.29052734 53.41898438 55.29052734 53.41898438 56.12890625 53.7109375 C59.54566345 55.78723069 61.52678323 58.71455413 63.90625 61.8828125 C64.84158049 63.10743384 65.77777242 64.33139773 66.71484375 65.5546875 C67.16843262 66.15216797 67.62202148 66.74964844 68.08935547 67.36523438 C69.45081087 69.10982501 70.87137124 70.78532805 72.31640625 72.4609375 C74.46875 75.1328125 74.46875 75.1328125 74.46875 77.1328125 C75.12875 77.1328125 75.78875 77.1328125 76.46875 77.1328125 C77.96827916 78.97997318 79.39396087 80.88743404 80.78125 82.8203125 C83.13684997 86.09575625 85.36111562 89.02848994 88.26171875 91.83984375 C90.46875 94.1328125 90.46875 94.1328125 90.46875 97.1328125 C91.05011719 97.37128906 91.63148438 97.60976563 92.23046875 97.85546875 C94.93115631 99.39669883 96.37318678 101.1239746 98.28125 103.5703125 C98.90644531 104.35277344 99.53164063 105.13523437 100.17578125 105.94140625 C100.60246094 106.66457031 101.02914062 107.38773438 101.46875 108.1328125 C100.97375 109.6178125 100.97375 109.6178125 100.46875 111.1328125 C96.14552539 111.25681285 91.82325398 111.34733506 87.4987793 111.4074707 C86.02919475 111.43254894 84.55973413 111.46662106 83.09057617 111.51000977 C80.97283319 111.57096749 78.85674424 111.59908566 76.73828125 111.62109375 C75.46573486 111.64727783 74.19318848 111.67346191 72.88208008 111.70043945 C68.5819734 110.98534411 67.21332042 109.42815984 64.46875 106.1328125 C63.87449219 105.48957031 63.28023437 104.84632813 62.66796875 104.18359375 C62.16910156 103.60996094 61.67023438 103.03632812 61.15625 102.4453125 C60.64449219 101.86394531 60.13273438 101.28257812 59.60546875 100.68359375 C58.46875 99.1328125 58.46875 99.1328125 58.46875 97.1328125 C57.80875 97.1328125 57.14875 97.1328125 56.46875 97.1328125 C55.09215232 95.41133472 53.79102237 93.62903595 52.53125 91.8203125 C49.84638585 87.92408529 49.84638585 87.92408529 46.71484375 84.40234375 C45.46875 83.1328125 45.46875 83.1328125 45.46875 81.1328125 C44.47875 80.8028125 43.48875 80.4728125 42.46875 80.1328125 C40.42578125 77.91796875 40.42578125 77.91796875 38.28125 75.1953125 C37.56582031 74.29941406 36.85039063 73.40351562 36.11328125 72.48046875 C34.46875 70.1328125 34.46875 70.1328125 34.46875 68.1328125 C32.51875871 68.32752361 32.51875871 68.32752361 30.46875 69.1328125 C29.18438266 71.1165892 29.18438266 71.1165892 28.46875 73.1328125 C27.80875 73.1328125 27.14875 73.1328125 26.46875 73.1328125 C25.80875 74.4528125 25.14875 75.7728125 24.46875 77.1328125 C23.80875 77.1328125 23.14875 77.1328125 22.46875 77.1328125 C21.32670972 80.55893333 21.27611496 83.34112268 21.1875 86.953125 C21.16909058 87.61238983 21.15068115 88.27165466 21.13171387 88.95089722 C21.05309973 91.7686966 20.98508073 94.5867263 20.91650391 97.40478516 C20.86490243 99.4626899 20.80762804 101.52038166 20.75 103.578125 C20.71970703 104.81062988 20.68941406 106.04313477 20.65820312 107.31298828 C20.46875 110.1328125 20.46875 110.1328125 19.46875 111.1328125 C17.62715977 111.23240871 15.78178033 111.26361661 13.9375 111.265625 C12.81730469 111.26691406 11.69710938 111.26820313 10.54296875 111.26953125 C9.36347656 111.26566406 8.18398438 111.26179687 6.96875 111.2578125 C5.19951172 111.26361328 5.19951172 111.26361328 3.39453125 111.26953125 C2.27433594 111.26824219 1.15414063 111.26695312 0 111.265625 C-1.03576172 111.26449707 -2.07152344 111.26336914 -3.13867188 111.26220703 C-5.53125 111.1328125 -5.53125 111.1328125 -6.53125 110.1328125 C-6.62891396 108.71835258 -6.65756677 107.29905304 -6.65823364 105.88122559 C-6.66105347 104.96415329 -6.66387329 104.04708099 -6.66677856 103.10221863 C-6.66475433 102.08815445 -6.6627301 101.07409027 -6.66064453 100.02929688 C-6.66239685 98.96761795 -6.66414917 97.90593903 -6.66595459 96.81208801 C-6.67037548 93.28356315 -6.66743428 89.75508793 -6.6640625 86.2265625 C-6.66473547 83.78658031 -6.66570544 81.34659818 -6.66696167 78.90661621 C-6.66843897 73.78523116 -6.66628307 68.66386351 -6.66162109 63.54248047 C-6.6559238 56.96118535 -6.65920263 50.37993101 -6.66519356 43.79863739 C-6.66879832 38.75795176 -6.66766098 33.71727588 -6.66506577 28.67658997 C-6.66439626 26.24917089 -6.66522573 23.82175094 -6.66754532 21.39433289 C-6.67007045 18.00830727 -6.66623322 14.62234871 -6.66064453 11.23632812 C-6.66266876 10.22226395 -6.66469299 9.20819977 -6.66677856 8.16340637 C-6.66395874 7.24633408 -6.66113892 6.32926178 -6.65823364 5.38439941 C-6.65785662 4.58281654 -6.65747959 3.78123367 -6.65709114 2.95536041 C-6.38206563 -1.02781371 -3.30818821 0.00360257 0 0 Z " fill="#FEFEFD" transform="translate(481.53125,542.8671875)"/>
<path d="M0 0 C1.23556641 0.01740234 1.23556641 0.01740234 2.49609375 0.03515625 C3.32238281 0.04417969 4.14867187 0.05320312 5 0.0625 C5.63808594 0.07410156 6.27617187 0.08570313 6.93359375 0.09765625 C6.93359375 0.75765625 6.93359375 1.41765625 6.93359375 2.09765625 C7.92359375 2.42765625 8.91359375 2.75765625 9.93359375 3.09765625 C11.94140625 5.4609375 11.94140625 5.4609375 14.05859375 8.41015625 C14.76242187 9.37566406 15.46625 10.34117187 16.19140625 11.3359375 C17.72578447 13.7682366 18.33267529 15.36222534 18.93359375 18.09765625 C20.24892785 18.79916777 21.58476967 19.4629155 22.93359375 20.09765625 C23.96809866 21.40439929 24.97267068 22.73589099 25.93359375 24.09765625 C25.92573853 23.11369873 25.92573853 23.11369873 25.91772461 22.10986328 C25.89698103 19.14747062 25.88394199 16.18509322 25.87109375 13.22265625 C25.86271484 12.19011719 25.85433594 11.15757812 25.84570312 10.09375 C25.84086914 8.61455078 25.84086914 8.61455078 25.8359375 7.10546875 C25.82808228 5.73865967 25.82808228 5.73865967 25.82006836 4.34423828 C25.93359375 2.09765625 25.93359375 2.09765625 26.93359375 0.09765625 C28.41266267 0.07076409 29.89186858 0.05131004 31.37109375 0.03515625 C32.19480469 0.02355469 33.01851563 0.01195312 33.8671875 0 C35.93359375 0.09765625 35.93359375 0.09765625 36.93359375 1.09765625 C37.03144716 2.44309952 37.0615736 3.79358188 37.06298828 5.14257812 C37.06614044 6.00016724 37.0692926 6.85775635 37.07254028 7.74133301 C37.07051605 8.67360718 37.06849182 9.60588135 37.06640625 10.56640625 C37.06736298 11.51704956 37.0683197 12.46769287 37.06930542 13.44714355 C37.06998732 15.46134507 37.06813237 17.47554877 37.06396484 19.48974609 C37.05861673 22.5843598 37.06390952 25.67882835 37.0703125 28.7734375 C37.06965172 30.72526074 37.06837056 32.67708389 37.06640625 34.62890625 C37.06843048 35.56118042 37.07045471 36.49345459 37.07254028 37.45397949 C37.06781204 38.74036316 37.06781204 38.74036316 37.06298828 40.05273438 C37.06219269 40.81138794 37.06139709 41.5700415 37.06057739 42.35168457 C36.93359375 44.09765625 36.93359375 44.09765625 35.93359375 45.09765625 C32.83962001 45.65524176 30.02152249 45.70482959 26.93359375 45.09765625 C24.45120397 43.23272492 22.99751703 40.90231334 21.37109375 38.28515625 C20.44669655 36.91270521 19.52221661 35.54030988 18.59765625 34.16796875 C18.15196289 33.48250977 17.70626953 32.79705078 17.24707031 32.09082031 C15.34475788 29.20411423 13.30055587 26.44057672 11.24609375 23.66015625 C10.15296875 22.15453125 9.05984375 20.64890625 7.93359375 19.09765625 C7.93359375 27.34765625 7.93359375 35.59765625 7.93359375 44.09765625 C0.05859375 46.34765625 0.05859375 46.34765625 -3.06640625 45.09765625 C-3.09167749 38.8496995 -3.10923969 32.60175584 -3.12133789 26.35375977 C-3.12637923 24.22647611 -3.13321216 22.09919594 -3.1418457 19.97192383 C-3.15392004 16.92137799 -3.15963639 13.8708778 -3.1640625 10.8203125 C-3.16922379 9.8630275 -3.17438507 8.90574249 -3.17970276 7.91944885 C-3.17977829 7.0386113 -3.17985382 6.15777374 -3.17993164 5.25024414 C-3.18215225 4.47080948 -3.18437286 3.69137482 -3.18666077 2.88832092 C-3.0107573 0.26900872 -2.61478783 0.1235722 0 0 Z " fill="#FCFBFB" transform="translate(349.06640625,677.90234375)"/>
<path d="M0 0 C4.72024794 4.0940926 7.89336374 8.25860914 8.84375 14.51171875 C9.34637691 22.51605227 9.17287933 29.0447721 3.75390625 35.3125 C-3.14578814 41.95095875 -8.95555928 43.42765734 -18.41015625 43.33984375 C-24.3548495 42.77707083 -28.53896359 40.66107139 -32.5859375 36.28515625 C-37.67088703 29.56890788 -38.75699927 23.30369967 -38 15 C-36.45882003 8.32905314 -33.4586588 3.6236426 -27.6875 -0.1875 C-18.58487338 -4.93166557 -9.0110675 -5.27062439 0 0 Z M-25.8125 12.6484375 C-27.78493354 16.55437497 -27.957028 19.76173315 -27 24 C-25.67605115 27.66524786 -24.07802418 30.32987686 -20.6875 32.4375 C-16.00327854 33.41791844 -12.32158489 33.4320566 -7.75 31.9375 C-4.29452406 29.50296013 -2.78999723 27.082956 -2 23 C-2.02547394 17.88822881 -2.46158056 12.79482268 -5.875 8.8125 C-13.40287564 4.44633213 -20.66211216 5.64093866 -25.8125 12.6484375 Z " fill="#FCFCFB" transform="translate(492,681)"/>
<path d="M0 0 C11.22 0 22.44 0 34 0 C34 3.3 34 6.6 34 10 C26.08 10 18.16 10 10 10 C10 12.64 10 15.28 10 18 C16.93 18 23.86 18 31 18 C31 20.97 31 23.94 31 27 C30 28 30 28 28.05053711 28.11352539 C27.2178833 28.10828857 26.38522949 28.10305176 25.52734375 28.09765625 C24.62822266 28.09443359 23.72910156 28.09121094 22.80273438 28.08789062 C21.85720703 28.07951172 20.91167969 28.07113281 19.9375 28.0625 C18.98810547 28.05798828 18.03871094 28.05347656 17.06054688 28.04882812 C14.70696935 28.0370011 12.35351523 28.02052025 10 28 C10.33 30.64 10.66 33.28 11 36 C11.95132813 35.75636719 11.95132813 35.75636719 12.921875 35.5078125 C17.04802012 34.82710328 21.07596499 34.85512364 25.25 34.875 C26.07757812 34.87113281 26.90515625 34.86726562 27.7578125 34.86328125 C33.87330665 34.87330665 33.87330665 34.87330665 35 36 C35.1328125 37.8125 35.1328125 37.8125 35.125 40 C35.12886719 41.0828125 35.12886719 41.0828125 35.1328125 42.1875 C35 44 35 44 34 45 C31.47931819 45.08846834 28.98545583 45.11534524 26.46484375 45.09765625 C25.46378601 45.09614563 25.46378601 45.09614563 24.44250488 45.09460449 C21.9408192 45.08935808 19.43915794 45.07539691 16.9375 45.0625 C8.5534375 45.0315625 8.5534375 45.0315625 0 45 C0 30.15 0 15.3 0 0 Z " fill="#FDFDFD" transform="translate(565,678)"/>
<path d="M0 0 C3.3 0 6.6 0 10 0 C11.48619895 2.97239791 11.13177009 5.69619578 11.125 9 C11.12757813 10.258125 11.13015625 11.51625 11.1328125 12.8125 C11 16 11 16 10 18 C15.94 18 21.88 18 28 18 C27.63204177 12.82400979 27.63204177 12.82400979 27.25170898 7.64892578 C26.88888889 2.22222222 26.88888889 2.22222222 28 0 C31.3 0 34.6 0 38 0 C38 14.85 38 29.7 38 45 C34.7 45 31.4 45 28 45 C26.18781528 39.56344584 27.53471032 33.63517506 28 28 C22.06 28 16.12 28 10 28 C10.36836135 33.22100062 10.36836135 33.22100062 10.74829102 38.44116211 C10.87155111 40.29190666 10.937603 42.14620522 11 44 C10.505 44.495 10.505 44.495 10 45 C6.7 45 3.4 45 0 45 C0 30.15 0 15.3 0 0 Z " fill="#FCFCFB" transform="translate(672,678)"/>
<path d="M0 0 C1.8359375 1.515625 1.8359375 1.515625 3 3 C2.78567797 6.32199142 1.32742034 8.67257966 -1 11 C-3.5 11.4375 -3.5 11.4375 -6 11 C-6.43570313 10.50757813 -6.87140625 10.01515625 -7.3203125 9.5078125 C-10.25773317 6.87096511 -13.55162448 7.41136109 -17.328125 7.53125 C-20.2941059 7.83607583 -20.2941059 7.83607583 -23.125 10.4375 C-25.62392314 14.3186114 -26.40459167 18.4304941 -26 23 C-24.79979513 26.70589574 -23.04477673 29.30348218 -19.75 31.5 C-16.00080215 32.18167234 -12.68378304 31.98700516 -9 31 C-7.66209359 30.00612666 -6.32781878 29.0073108 -5 28 C-2.25 28.3125 -2.25 28.3125 0 29 C0 29.66 0 30.32 0 31 C0.99 31.33 1.98 31.66 3 32 C2.9375 34.1875 2.9375 34.1875 2 37 C-4.21171282 42.76459724 -10.12301152 43.41681413 -18.41015625 43.33984375 C-24.36605001 42.7760105 -28.41498243 40.6232198 -32.5859375 36.390625 C-37.28651904 30.46734884 -38.65295051 23.44363579 -38 16 C-36.57175454 9.96383852 -34.68318034 4.56924287 -29.3984375 0.8828125 C-19.26874205 -5.23070414 -10.61302842 -5.05301831 0 0 Z " fill="#FCFCFB" transform="translate(652,681)"/>
<path d="M0 0 C1.43352212 0.00015908 2.86704998 0.00585132 4.30053711 0.01586914 C5.43041298 0.01799156 5.43041298 0.01799156 6.58311462 0.02015686 C8.99807646 0.02577163 11.41294687 0.03832656 13.82788086 0.05102539 C15.46134307 0.05603849 17.09480672 0.06060173 18.72827148 0.06469727 C22.74067671 0.07574585 26.75301326 0.09302033 30.76538086 0.11352539 C30.76538086 3.41352539 30.76538086 6.71352539 30.76538086 10.11352539 C22.84538086 10.11352539 14.92538086 10.11352539 6.76538086 10.11352539 C6.76538086 13.08352539 6.76538086 16.05352539 6.76538086 19.11352539 C8.1975293 19.10192383 9.62967773 19.09032227 11.10522461 19.07836914 C12.97110873 19.06899284 14.83699425 19.05989247 16.70288086 19.05102539 C17.6484082 19.04264648 18.59393555 19.03426758 19.56811523 19.02563477 C20.91679687 19.02080078 20.91679687 19.02080078 22.29272461 19.01586914 C23.54170532 19.00801392 23.54170532 19.00801392 24.81591797 19 C26.76538086 19.11352539 26.76538086 19.11352539 27.76538086 20.11352539 C27.89819336 21.92602539 27.89819336 21.92602539 27.89038086 24.11352539 C27.89424805 25.19633789 27.89424805 25.19633789 27.89819336 26.30102539 C27.76538086 28.11352539 27.76538086 28.11352539 26.76538086 29.11352539 C25.27666226 29.20021971 23.78393586 29.22056033 22.29272461 29.21118164 C21.39360352 29.20795898 20.49448242 29.20473633 19.56811523 29.20141602 C18.62258789 29.19303711 17.67706055 29.1846582 16.70288086 29.17602539 C15.75348633 29.17151367 14.8040918 29.16700195 13.82592773 29.16235352 C11.47238555 29.15052667 9.11887554 29.1325906 6.76538086 29.11352539 C6.76538086 34.39352539 6.76538086 39.67352539 6.76538086 45.11352539 C3.13538086 45.11352539 -0.49461914 45.11352539 -4.23461914 45.11352539 C-4.25926369 38.86556286 -4.27745257 32.61762836 -4.28955078 26.36962891 C-4.29459212 24.24234525 -4.30142505 22.11506508 -4.31005859 19.98779297 C-4.32213293 16.93724713 -4.32784928 13.88674694 -4.33227539 10.83618164 C-4.33743668 9.87889664 -4.34259796 8.92161163 -4.34791565 7.93531799 C-4.34799118 7.05448044 -4.34806671 6.17364288 -4.34814453 5.26611328 C-4.35036514 4.48667862 -4.35258575 3.70724396 -4.35487366 2.90419006 C-4.1382919 -0.32084723 -3.29714795 0.11571996 0 0 Z " fill="#FBFBFA" transform="translate(409.234619140625,677.886474609375)"/>
<path d="M0 0 C1.87109375 0.078125 1.87109375 0.078125 4 1 C5.59765625 3.546875 5.59765625 3.546875 7.0625 6.75 C8.87204665 10.6474851 10.73369069 14.34872389 13 18 C14.23581945 20.03764662 15.46479002 22.07946003 16.6875 24.125 C17.62142578 25.67574219 17.62142578 25.67574219 18.57421875 27.2578125 C20 30 20 30 20 33 C20.66 33 21.32 33 22 33 C27.44092451 42.61106619 32.80861145 52.25154048 38 62 C37.01 62.99 37.01 62.99 36 64 C33.82626954 60.3791912 31.66222771 56.75268765 29.5 53.125 C28.56994141 51.57619141 28.56994141 51.57619141 27.62109375 49.99609375 C27.03457031 49.00996094 26.44804687 48.02382813 25.84375 47.0078125 C25.02680664 45.64100342 25.02680664 45.64100342 24.19335938 44.24658203 C23 42 23 42 23 40 C22.34 40 21.68 40 21 40 C19.97895449 39.02149805 18.9793879 38.02019573 18 37 C17.34 36.67 16.68 36.34 16 36 C15.4375 34.125 15.4375 34.125 15 32 C14.505 30.515 14.505 30.515 14 29 C13.34 28.67 12.68 28.34 12 28 C11.59270772 25.67843403 11.25561323 23.3431213 11 21 C10.01 21 9.02 21 8 21 C7.87625 19.865625 7.7525 18.73125 7.625 17.5625 C7.315625 15.7990625 7.315625 15.7990625 7 14 C6.01 13.505 6.01 13.505 5 13 C5 12.01 5 11.02 5 10 C2.64828869 10.59861742 0.3140622 11.26924352 -2 12 C-2.33 12.66 -2.66 13.32 -3 14 C-3.66 14 -4.32 14 -5 14 C-4.01 16.475 -4.01 16.475 -3 19 C-4.65 19.66 -6.3 20.32 -8 21 C-8.0825 22.11375 -8.165 23.2275 -8.25 24.375 C-8.62125 26.169375 -8.62125 26.169375 -9 28 C-9.61875 28.28875 -10.2375 28.5775 -10.875 28.875 C-13.91270488 30.4831967 -14.44311369 32.50299383 -15.75 35.625 C-16.17796875 36.62789063 -16.6059375 37.63078125 -17.046875 38.6640625 C-17.51867187 39.82035156 -17.51867187 39.82035156 -18 41 C-18.66 41 -19.32 41 -20 41 C-20.1546875 42.0828125 -20.1546875 42.0828125 -20.3125 43.1875 C-21.25622614 47.04819786 -23.15857902 49.79895801 -25.42578125 53.03515625 C-27.96350483 56.70635438 -30.18385927 60.06826136 -31.625 64.3125 C-32.99233077 67.97943252 -34.11309096 69.48559535 -37 72 C-39.10286484 74.84185733 -39.10286484 74.84185733 -39.875 77.875 C-41.08876974 81.24658261 -42.75318763 83.2458429 -45 86 C-45.77833534 88.18214568 -45.77833534 88.18214568 -46 90 C-46.66 90 -47.32 90 -48 90 C-47.938125 90.763125 -47.87625 91.52625 -47.8125 92.3125 C-48.04212009 95.60372122 -48.73034324 95.77316695 -51 98 C-51.9414298 99.53545874 -52.83634864 101.10021774 -53.6875 102.6875 C-54.12449219 103.49574219 -54.56148438 104.30398438 -55.01171875 105.13671875 C-55.33785156 105.75160156 -55.66398437 106.36648438 -56 107 C-56.66 107 -57.32 107 -58 107 C-58.33 109.64 -58.66 112.28 -59 115 C-60.98 115.495 -60.98 115.495 -63 116 C-63.66 118.31 -64.32 120.62 -65 123 C-66.98 123.495 -66.98 123.495 -69 124 C-69.33 125.65 -69.66 127.3 -70 129 C-70.66 129 -71.32 129 -72 129 C-72.24492187 129.84820312 -72.48984375 130.69640625 -72.7421875 131.5703125 C-74.11754788 135.32051876 -75.98381119 138.53081111 -78.125 141.875 C-78.49753906 142.46796875 -78.87007813 143.0609375 -79.25390625 143.671875 C-80.16365 145.1181343 -81.08103798 146.55958046 -82 148 C-83 146 -83 146 -82 142.5625 C-80.16502356 137.89860154 -77.49562664 133.86407318 -74.71875 129.7109375 C-72.92671837 126.88441489 -71.47670778 124.0022634 -70 121 C-68.66007577 118.5530627 -67.30929068 116.1163533 -65.9375 113.6875 C-65.54973389 112.99962402 -65.16196777 112.31174805 -64.76245117 111.60302734 C-59.24525399 101.85462107 -53.55526273 92.20444136 -47.75 82.625 C-45.19686823 78.39368611 -42.84553042 74.06775431 -40.5 69.71875 C-39.05827379 67.10562124 -37.54958452 64.55035785 -36 62 C-33.43697646 57.7746537 -31.05277936 53.47576681 -28.703125 49.12890625 C-24.0646726 40.60734575 -19.41367236 32.07802543 -14.171875 23.91015625 C-12.15845146 20.62827589 -10.38130885 17.21636564 -8.5546875 13.828125 C-2.11656442 2.11656442 -2.11656442 2.11656442 0 0 Z " fill="#07D8F2" transform="translate(448,275)"/>
<path d="M0 0 C1.8203125 0.15625 1.8203125 0.15625 4 1 C5.4921875 3.40625 5.4921875 3.40625 6.875 6.5 C8.70535181 10.39524619 10.54734769 14.02477376 13 17.5625 C16.41480047 22.49300825 19.18218324 27.71272295 22 33 C23.65034723 36.00913311 25.32461314 39.00474604 27 42 C27.32371582 42.57911133 27.64743164 43.15822266 27.98095703 43.75488281 C32.31506487 51.50285607 36.69339665 59.21837947 41.1875 66.875 C43.72534255 71.25059061 46.19210088 75.66509285 48.6640625 80.078125 C50.90617943 84.07427899 53.18039142 88.04807426 55.5 92 C58.62362119 97.32172499 61.64857948 102.69477947 64.6640625 108.078125 C66.90617943 112.07427899 69.18039142 116.04807426 71.5 120 C75.04820422 126.04845045 78.49091018 132.15318377 81.90625 138.27734375 C83.14759681 140.4995562 84.41350737 142.69262485 85.71875 144.87890625 C86.1828125 145.66136719 86.646875 146.44382812 87.125 147.25 C87.51945313 147.89453125 87.91390625 148.5390625 88.3203125 149.203125 C89.18719066 151.49487187 88.66330742 152.69185734 88 155 C87.64921387 154.36835938 87.29842773 153.73671875 86.93701172 153.0859375 C79.81904857 140.28421044 72.61459117 127.54855906 65.20068359 114.91552734 C60.52576065 106.93725519 55.95666961 98.90275456 51.43725586 90.83544922 C45.03765171 77.05417168 45.03765171 77.05417168 34.8125 67.125 C34.214375 66.75375 33.61625 66.3825 33 66 C32.375 62.6875 32.375 62.6875 32 59 C31.36562656 57.3207762 30.70710678 55.64991582 30 54 C30 53.34 30 52.68 30 52 C28.68 52.33 27.36 52.66 26 53 C26 52.34 26 51.68 26 51 C26.66 51 27.32 51 28 51 C27.34 50.34 26.68 49.68 26 49 C24 47 24 47 23.5 43.4375 C23.335 42.303125 23.17 41.16875 23 40 C22.34 39.67 21.68 39.34 21 39 C20.67 38.34 20.34 37.68 20 37 C18.515 36.01 18.515 36.01 17 35 C16.66666667 33.33333333 16.33333333 31.66666667 16 30 C15.01 29.34 14.02 28.68 13 28 C12.12109375 25.90625 12.12109375 25.90625 11.4375 23.5 C10.40659345 19.87446756 10.40659345 19.87446756 8 17 C8 16.01 8 15.02 8 14 C7.34 14 6.68 14 6 14 C5.34 12.68 4.68 11.36 4 10 C-0.81713786 12.47738519 -4.84619594 15.82703883 -6.75 21.0625 C-6.8325 21.701875 -6.915 22.34125 -7 23 C-7.185625 23.9075 -7.37125 24.815 -7.5625 25.75 C-7.706875 26.4925 -7.85125 27.235 -8 28 C-8.99 28.33 -9.98 28.66 -11 29 C-12.20882096 31.00016466 -12.20882096 31.00016466 -13 33 C-13.99 33 -14.98 33 -16 33 C-15.9175 34.051875 -15.835 35.10375 -15.75 36.1875 C-16.03596677 40.54849321 -16.90957464 42.00046951 -20 45 C-20.66 45 -21.32 45 -22 45 C-22 45.66 -22 46.32 -22 47 C-22.66 47 -23.32 47 -24 47 C-24 48.32 -24 49.64 -24 51 C-24.66 51 -25.32 51 -26 51 C-26.33 52.65 -26.66 54.3 -27 56 C-28.485 56.495 -28.485 56.495 -30 57 C-30.66 60.3 -31.32 63.6 -32 67 C-33.98 67.495 -33.98 67.495 -36 68 C-35.773125 68.598125 -35.54625 69.19625 -35.3125 69.8125 C-35 72 -35 72 -36.3125 73.75 C-38 75 -38 75 -40 75 C-40.26039063 75.70382812 -40.52078125 76.40765625 -40.7890625 77.1328125 C-42.09417991 80.22299373 -43.66052073 82.99257853 -45.375 85.875 C-46.30119141 87.44121094 -46.30119141 87.44121094 -47.24609375 89.0390625 C-48.11427734 90.50472656 -48.11427734 90.50472656 -49 92 C-50.34306458 94.32797861 -51.67228544 96.66322237 -53 99 C-53.72265625 97.41015625 -53.72265625 97.41015625 -54 95 C-52.90530971 92.67118732 -51.78611464 90.61013495 -50.4375 88.4375 C-49.74713319 87.29130558 -49.05838328 86.14413603 -48.37109375 84.99609375 C-47.99605713 84.37323486 -47.62102051 83.75037598 -47.23461914 83.10864258 C-45.27733759 79.76574348 -43.45328883 76.35174973 -41.6081543 72.94604492 C-38.85938891 67.91046698 -36.01949613 62.92659239 -33.1875 57.9375 C-32.03471757 55.90519669 -30.88235176 53.87265698 -29.73046875 51.83984375 C-29.22926514 50.95675537 -28.72806152 50.07366699 -28.21166992 49.16381836 C-27.443822 47.79258399 -26.70283343 46.40566685 -26 45 C-25.34 45 -24.68 45 -24 45 C-23.83564453 43.90558594 -23.83564453 43.90558594 -23.66796875 42.7890625 C-22.95984895 39.83235175 -21.9399068 37.92930254 -20.3125 35.375 C-16.60141329 29.40499095 -13.1445467 23.28909341 -10 17 C-9.34 17 -8.68 17 -8 17 C-7.86271484 15.95779297 -7.86271484 15.95779297 -7.72265625 14.89453125 C-6.84484502 11.3785414 -5.30948033 8.78477654 -3.4375 5.6875 C-2.47650391 4.08455078 -2.47650391 4.08455078 -1.49609375 2.44921875 C-1.00238281 1.64097656 -0.50867188 0.83273437 0 0 Z " fill="#19B7ED" transform="translate(576,275)"/>
<path d="M0 0 C5.10863896 -0.0246501 10.21724359 -0.04283607 15.32592773 -0.05493164 C17.06519168 -0.05997204 18.80445136 -0.0668043 20.54370117 -0.07543945 C23.03825937 -0.08751792 25.53276173 -0.09323108 28.02734375 -0.09765625 C28.80963852 -0.10281754 29.59193329 -0.10797882 30.39793396 -0.11329651 C32.26567114 -0.11349226 34.13329204 -0.06199694 36 0 C37 1 37 1 37.09765625 3.06640625 C37.06510417 5.37760417 37.03255208 7.68880208 37 10 C32.71 10 28.42 10 24 10 C24.00785522 11.53708618 24.00785522 11.53708618 24.01586914 13.10522461 C24.03391969 16.89395276 24.0454322 20.68267709 24.05493164 24.47143555 C24.05997174 26.11369464 24.06680378 27.75594923 24.07543945 29.39819336 C24.08751926 31.75375479 24.09323139 34.10925709 24.09765625 36.46484375 C24.10281754 37.20339096 24.10797882 37.94193817 24.11329651 38.7028656 C24.1134925 40.46898088 24.06194719 42.23497146 24 44 C22.42648119 45.57351881 20.67045509 45.38460149 18.5 45.625 C17.6853125 45.72039063 16.870625 45.81578125 16.03125 45.9140625 C15.3609375 45.94242188 14.690625 45.97078125 14 46 C13 45 13 45 12.88647461 41.67358398 C12.88663371 40.19774444 12.89232686 38.72189931 12.90234375 37.24609375 C12.9037587 36.47064713 12.90517365 35.6952005 12.90663147 34.89625549 C12.91224655 32.40996506 12.92480154 29.9237634 12.9375 27.4375 C12.94251306 25.75586067 12.9470763 24.07421994 12.95117188 22.39257812 C12.96222087 18.26168434 12.97949555 14.13085724 13 10 C11.60974609 10.01740234 11.60974609 10.01740234 10.19140625 10.03515625 C8.99386719 10.04417969 7.79632812 10.05320312 6.5625 10.0625 C5.36753906 10.07410156 4.17257812 10.08570313 2.94140625 10.09765625 C0 10 0 10 -1 9 C-1.23728814 2.47457627 -1.23728814 2.47457627 0 0 Z " fill="#FBFBFA" transform="translate(513,678)"/>
<path d="M0 0 C3.3 0 6.6 0 10 0 C11.53084425 1.53084425 11.12715779 2.91203144 11.12939453 5.04492188 C11.13254669 5.90251099 11.13569885 6.7601001 11.13894653 7.64367676 C11.1369223 8.57595093 11.13489807 9.5082251 11.1328125 10.46875 C11.13376923 11.41939331 11.13472595 12.37003662 11.13571167 13.3494873 C11.13639357 15.36368882 11.13453862 17.37789252 11.13037109 19.39208984 C11.12502298 22.48670355 11.13031577 25.5811721 11.13671875 28.67578125 C11.13605797 30.62760449 11.13477681 32.57942764 11.1328125 34.53125 C11.13483673 35.46352417 11.13686096 36.39579834 11.13894653 37.35632324 C11.13579437 38.21391235 11.13264221 39.07150146 11.12939453 39.95507812 C11.12820114 41.09305847 11.12820114 41.09305847 11.12698364 42.25402832 C11 44 11 44 10 45 C2.40963855 46.20481928 2.40963855 46.20481928 0 45 C0 30.15 0 15.3 0 0 Z " fill="#FCFCFC" transform="translate(316,678)"/>
<path d="M0 0 C1.87109375 0.078125 1.87109375 0.078125 4 1 C5.59765625 3.546875 5.59765625 3.546875 7.0625 6.75 C8.87204665 10.6474851 10.73369069 14.34872389 13 18 C14.23581945 20.03764662 15.46479002 22.07946003 16.6875 24.125 C17.31011719 25.15882813 17.93273437 26.19265625 18.57421875 27.2578125 C20 30 20 30 20 33 C20.66 33 21.32 33 22 33 C27.44092451 42.61106619 32.80861145 52.25154048 38 62 C37.34 62.66 36.68 63.32 36 64 C33.82626954 60.3791912 31.66222771 56.75268765 29.5 53.125 C28.56994141 51.57619141 28.56994141 51.57619141 27.62109375 49.99609375 C27.03457031 49.00996094 26.44804687 48.02382813 25.84375 47.0078125 C25.29912109 46.09660645 24.75449219 45.18540039 24.19335938 44.24658203 C23 42 23 42 23 40 C22.34 40 21.68 40 21 40 C19.97895449 39.02149805 18.9793879 38.02019573 18 37 C17.34 36.67 16.68 36.34 16 36 C15.4375 34.125 15.4375 34.125 15 32 C14.67 31.01 14.34 30.02 14 29 C13.34 28.67 12.68 28.34 12 28 C11.59270772 25.67843403 11.25561323 23.3431213 11 21 C10.01 21 9.02 21 8 21 C7.87625 19.865625 7.7525 18.73125 7.625 17.5625 C7.41875 16.386875 7.2125 15.21125 7 14 C6.34 13.67 5.68 13.34 5 13 C5 12.01 5 11.02 5 10 C2.64828869 10.59861742 0.3140622 11.26924352 -2 12 C-2.33 12.66 -2.66 13.32 -3 14 C-3.99 14 -4.98 14 -6 14 C-6.433125 15.4540625 -6.433125 15.4540625 -6.875 16.9375 C-8 20 -8 20 -10 21 C-8.72379569 13.62637511 -5.37936371 5.37936371 0 0 Z " fill="#0CDEF8" transform="translate(448,275)"/>
<path d="M0 0 C0.33 0 0.66 0 1 0 C1.3125 2.125 1.3125 2.125 1 5 C-0.62126675 7.03697617 -2.28859531 9.03814584 -4 11 C-4.85279338 13.21735439 -4.85279338 13.21735439 -5 15 C-5.66 15 -6.32 15 -7 15 C-6.938125 15.763125 -6.87625 16.52625 -6.8125 17.3125 C-7.04212009 20.60372122 -7.73034324 20.77316695 -10 23 C-10.9414298 24.53545874 -11.83634864 26.10021774 -12.6875 27.6875 C-13.12449219 28.49574219 -13.56148438 29.30398438 -14.01171875 30.13671875 C-14.33785156 30.75160156 -14.66398437 31.36648438 -15 32 C-15.66 32 -16.32 32 -17 32 C-17.33 34.64 -17.66 37.28 -18 40 C-19.98 40.495 -19.98 40.495 -22 41 C-22.66 43.31 -23.32 45.62 -24 48 C-25.98 48.495 -25.98 48.495 -28 49 C-28.495 51.475 -28.495 51.475 -29 54 C-29.66 54 -30.32 54 -31 54 C-31.24492187 54.84820312 -31.48984375 55.69640625 -31.7421875 56.5703125 C-33.11754788 60.32051876 -34.98381119 63.53081111 -37.125 66.875 C-37.68380859 67.76445312 -37.68380859 67.76445312 -38.25390625 68.671875 C-39.16365 70.1181343 -40.08103798 71.55958046 -41 73 C-42 71 -42 71 -41 67.5625 C-39.16502356 62.89860154 -36.49562664 58.86407318 -33.71875 54.7109375 C-31.92671837 51.88441489 -30.47670778 49.0022634 -29 46 C-27.66007677 43.55306452 -26.30918976 41.11640784 -24.9375 38.6875 C-24.55045898 38.00034912 -24.16341797 37.31319824 -23.76464844 36.60522461 C-20.40374993 30.66320441 -16.94819024 24.77895851 -13.47290039 18.90332031 C-10.5639981 13.97994115 -7.7385567 9.02068729 -5 4 C-4.34 4.33 -3.68 4.66 -3 5 C-2.525625 4.175 -2.05125 3.35 -1.5625 2.5 C-1.046875 1.675 -0.53125 0.85 0 0 Z " fill="#01A6D8" transform="translate(407,350)"/>
<path d="M0 0 C2.265625 0.12109375 2.265625 0.12109375 5 1 C6.921875 3.59765625 6.921875 3.59765625 8.75 7.0625 C9.4412145 8.34255148 10.13262854 9.62249522 10.82421875 10.90234375 C11.17919434 11.57378418 11.53416992 12.24522461 11.89990234 12.93701172 C13.72847721 16.36609685 15.64997076 19.74226476 17.5625 23.125 C18.13242676 24.14025757 18.13242676 24.14025757 18.71386719 25.17602539 C21.48339865 30.1085824 24.32396584 34.99638625 27.1875 39.875 C29.72534255 44.25059061 32.19210088 48.66509285 34.6640625 53.078125 C36.90617943 57.07427899 39.18039142 61.04807426 41.5 65 C45.04820422 71.04845045 48.49091018 77.15318377 51.90625 83.27734375 C53.14759681 85.4995562 54.41350737 87.69262485 55.71875 89.87890625 C56.1828125 90.66136719 56.646875 91.44382812 57.125 92.25 C57.71667969 93.21679688 57.71667969 93.21679688 58.3203125 94.203125 C59.18719066 96.49487187 58.66330742 97.69185734 58 100 C57.64921387 99.36835938 57.29842773 98.73671875 56.93701172 98.0859375 C49.81904857 85.28421044 42.61459117 72.54855906 35.20068359 59.91552734 C30.52576065 51.93725519 25.95666961 43.90275456 21.43725586 35.83544922 C15.03765171 22.05417168 15.03765171 22.05417168 4.8125 12.125 C3.9153125 11.568125 3.9153125 11.568125 3 11 C2.375 7.625 2.375 7.625 2 4 C1.04415562 1.66411677 1.04415562 1.66411677 0 0 Z " fill="#16A0E9" transform="translate(606,330)"/>
<path d="M0 0 C1.32 0.66 2.64 1.32 4 2 C3.01 4.64 2.02 7.28 1 10 C0.01 10 -0.98 10 -2 10 C-2.28875 10.78375 -2.5775 11.5675 -2.875 12.375 C-4 15 -4 15 -6 17 C-7.43824004 19.36680952 -7.43824004 19.36680952 -8 22 C-8.52373708 25.79709385 -10.20225555 27.47300502 -13 30 C-12.67 30.66 -12.34 31.32 -12 32 C-12.45375 32.433125 -12.9075 32.86625 -13.375 33.3125 C-15.20024334 35.10798342 -15.20024334 35.10798342 -17 38 C-13.37 38 -9.74 38 -6 38 C-6 38.66 -6 39.32 -6 40 C-4.86111328 39.89171875 -4.86111328 39.89171875 -3.69921875 39.78125 C-2.70535156 39.6884375 -1.71148437 39.595625 -0.6875 39.5 C0.29863281 39.4071875 1.28476562 39.314375 2.30078125 39.21875 C6.68583547 38.86337658 10.6585941 39.34469345 15 40 C15.495 39.01 15.495 39.01 16 38 C16 38.66 16 39.32 16 40 C18.31 39.67 20.62 39.34 23 39 C23.33 38.01 23.66 37.02 24 36 C24.33 36.66 24.66 37.32 25 38 C26.65 38 28.3 38 30 38 C30 38.66 30 39.32 30 40 C32.31 40 34.62 40 37 40 C37 40.33 37 40.66 37 41 C17.86 41 -1.28 41 -21 41 C-19.87566363 34.2539818 -19.87566363 34.2539818 -17.85546875 30.9765625 C-17.21061523 29.90921875 -17.21061523 29.90921875 -16.55273438 28.8203125 C-15.87694336 27.73363281 -15.87694336 27.73363281 -15.1875 26.625 C-11.85591503 21.18487888 -8.78149329 15.74452927 -6 10 C-5.34 10 -4.68 10 -4 10 C-3.896875 9.46375 -3.79375 8.9275 -3.6875 8.375 C-2.81907303 5.37497956 -1.44379704 2.7620465 0 0 Z " fill="#0260B2" transform="translate(340,462)"/>
<path d="M0 0 C5.66153846 2.46153846 5.66153846 2.46153846 7.375 5.1875 C7.58125 5.785625 7.7875 6.38375 8 7 C7.34 7.33 6.68 7.66 6 8 C6.309375 8.7425 6.61875 9.485 6.9375 10.25 C7.8094925 12.50692176 8.47667007 14.6450153 9 17 C8.01 17.495 8.01 17.495 7 18 C4.03 12.555 4.03 12.555 1 7 C-2.29250544 10.29250544 -3.83702104 12.17569613 -5.875 16.125 C-7.82393351 19.81720068 -9.82517817 23.43602496 -12 27 C-14.09803323 30.45301303 -16.08203337 33.9437702 -18 37.5 C-20.37246912 41.89895316 -22.89335222 46.17882373 -25.48828125 50.44921875 C-27.63032825 54.06357712 -29.62033205 57.75472397 -31.60546875 61.45703125 C-32.06566406 62.29621094 -32.52585937 63.13539063 -33 64 C-33.49113281 64.91136719 -33.98226563 65.82273437 -34.48828125 66.76171875 C-36 69 -36 69 -39 70 C-37.66396277 66.48036586 -36.11234639 63.23826169 -34.26953125 59.95703125 C-33.72079346 58.97766602 -33.17205566 57.99830078 -32.60668945 56.98925781 C-31.71856567 55.4167627 -31.71856567 55.4167627 -30.8125 53.8125 C-30.20043701 52.72420898 -29.58837402 51.63591797 -28.95776367 50.51464844 C-12.19352328 20.78048186 -12.19352328 20.78048186 -6.36987305 11.36425781 C-4.86464178 8.96057771 -4.86464178 8.96057771 -4 5.875 C-3.02432643 3.06993848 -2.25849802 1.84786202 0 0 Z " fill="#01B9EB" transform="translate(448,374)"/>
<path d="M0 0 C3.30732076 2.82280881 5.23366565 6.5345466 7.375 10.25 C7.80707764 10.99161377 8.23915527 11.73322754 8.68432617 12.49731445 C12.83852766 19.65580863 16.89024416 26.87259589 20.94165039 34.08959961 C25.50705963 42.19696222 30.2289024 50.20574132 35.03833008 58.1706543 C35.55806396 59.03859619 36.07779785 59.90653809 36.61328125 60.80078125 C37.07516846 61.56559814 37.53705566 62.33041504 38.01293945 63.1184082 C39 65 39 65 39 67 C38.34 67 37.68 67 37 67 C35.3359375 64.6484375 35.3359375 64.6484375 33.375 61.375 C33.02888672 60.79830566 32.68277344 60.22161133 32.32617188 59.62744141 C31.20881035 57.75661583 30.10413848 55.87865495 29 54 C28.42813965 53.03900391 28.42813965 53.03900391 27.84472656 52.05859375 C26.7213923 50.16887256 25.60873094 48.27331972 24.5 46.375 C24.1498584 45.78380371 23.7997168 45.19260742 23.43896484 44.58349609 C21.84682185 41.81827945 21 40.25044207 21 37 C20.34 37 19.68 37 19 37 C18.731875 36.51273437 18.46375 36.02546875 18.1875 35.5234375 C15.49018267 30.64342259 12.75738275 25.78380907 10 20.9375 C9.65638428 20.33212402 9.31276855 19.72674805 8.95874023 19.10302734 C7.08934907 15.83081371 5.14276881 12.64150739 3.0625 9.5 C1.0730023 6.40225861 0.27891015 3.71880199 0 0 Z " fill="#148ADE" transform="translate(579,379)"/>
<path d="M0 0 C0.99 0 1.98 0 3 0 C5.10770759 2.88834003 6 4.38462395 6 8 C6.99 8.33 7.98 8.66 9 9 C10.1875 12.0625 10.1875 12.0625 11 15 C11.99 15 12.98 15 14 15 C15.98 11.37 17.96 7.74 20 4 C20.66 5.32 21.32 6.64 22 8 C21.13671875 10.03515625 21.13671875 10.03515625 19.6875 12.0625 C17.99286586 14.48141613 16.94682159 16.15953523 16 19 C15.34 19 14.68 19 14 19 C14 19.66 14 20.32 14 21 C14.66 21 15.32 21 16 21 C16.12375 21.639375 16.2475 22.27875 16.375 22.9375 C16.58125 23.618125 16.7875 24.29875 17 25 C17.66 25.33 18.32 25.66 19 26 C19 26.66 19 27.32 19 28 C18.34 28 17.68 28 17 28 C17.66 28.66 18.32 29.32 19 30 C19.66 29.67 20.32 29.34 21 29 C20.67 30.98 20.34 32.96 20 35 C16.96059842 32.19540198 15.01775149 29.54287436 13.125 25.875 C11.12058574 22.0742246 9.04943058 18.35651021 6.8125 14.6875 C0.96793382 5.03325587 0.96793382 5.03325587 0 0 Z " fill="#0362AF" transform="translate(472,419)"/>
<path d="M0 0 C0.99 0.33 1.98 0.66 3 1 C2.67 1.99 2.34 2.98 2 4 C1.34 4 0.68 4 0 4 C-0.66 7.3 -1.32 10.6 -2 14 C-3.32 14.33 -4.64 14.66 -6 15 C-5.773125 15.598125 -5.54625 16.19625 -5.3125 16.8125 C-5 19 -5 19 -6.3125 20.75 C-8 22 -8 22 -10 22 C-10.26039063 22.70382812 -10.52078125 23.40765625 -10.7890625 24.1328125 C-12.09417991 27.22299373 -13.66052073 29.99257853 -15.375 32.875 C-15.99246094 33.91914063 -16.60992188 34.96328125 -17.24609375 36.0390625 C-17.82488281 37.01617187 -18.40367187 37.99328125 -19 39 C-20.34306458 41.32797861 -21.67228544 43.66322237 -23 46 C-23.72265625 44.41015625 -23.72265625 44.41015625 -24 42 C-22.90459394 39.66966461 -21.78544433 37.61214801 -20.4375 35.4375 C-19.68262391 34.17245322 -18.92872554 32.90682253 -18.17578125 31.640625 C-17.80146973 31.01865234 -17.4271582 30.39667969 -17.04150391 29.75585938 C-15.66558121 27.43620724 -14.39198622 25.06811965 -13.125 22.6875 C-8.96967412 15.00014712 -4.4575938 7.51448126 0 0 Z " fill="#139DE0" transform="translate(546,328)"/>
<path d="M0 0 C0.33 0 0.66 0 1 0 C1.3125 2.125 1.3125 2.125 1 5 C-0.62126675 7.03697617 -2.28859531 9.03814584 -4 11 C-4.85279338 13.21735439 -4.85279338 13.21735439 -5 15 C-5.66 15 -6.32 15 -7 15 C-6.938125 15.763125 -6.87625 16.52625 -6.8125 17.3125 C-7 20 -7 20 -8.4375 21.6875 C-8.953125 22.120625 -9.46875 22.55375 -10 23 C-10.33 23.66 -10.66 24.32 -11 25 C-11.99 25.33 -12.98 25.66 -14 26 C-15.22445284 27.62948064 -15.22445284 27.62948064 -16.1875 29.5625 C-16.785625 30.696875 -17.38375 31.83125 -18 33 C-18.66 32.67 -19.32 32.34 -20 32 C-18.75498728 27.14445039 -16.53896703 23.70603518 -13.73046875 19.65625 C-10.46531544 14.64427652 -7.76771795 9.29796898 -5 4 C-4.34 4.33 -3.68 4.66 -3 5 C-2.525625 4.175 -2.05125 3.35 -1.5625 2.5 C-1.046875 1.675 -0.53125 0.85 0 0 Z " fill="#03B3E0" transform="translate(407,350)"/>
<path d="M0 0 C2.76544722 3.45680903 4.84921278 7.14341602 7 11 C7.99 11 8.98 11 10 11 C15.15063831 19.92331364 20.1638292 28.90195368 25 38 C24.34 38.66 23.68 39.32 23 40 C20.82626954 36.3791912 18.66222771 32.75268765 16.5 29.125 C15.87996094 28.09246094 15.25992187 27.05992187 14.62109375 25.99609375 C14.03457031 25.00996094 13.44804687 24.02382813 12.84375 23.0078125 C12.29912109 22.09660645 11.75449219 21.18540039 11.19335938 20.24658203 C10 18 10 18 10 16 C9.34 16 8.68 16 8 16 C6.97895449 15.02149805 5.9793879 14.02019573 5 13 C4.34 12.67 3.68 12.34 3 12 C2.4375 10.125 2.4375 10.125 2 8 C1.67 7.01 1.34 6.02 1 5 C0.34 4.67 -0.32 4.34 -1 4 C-0.67 2.68 -0.34 1.36 0 0 Z " fill="#04DCF9" transform="translate(461,299)"/>
<path d="M0 0 C0.33 0 0.66 0 1 0 C1 13.86 1 27.72 1 42 C11.56 42 22.12 42 33 42 C33 39.69 33 37.38 33 35 C31.02 35 29.04 35 27 35 C27.33 34.34 27.66 33.68 28 33 C29.99954746 32.95745644 32.00041636 32.95919217 34 33 C35 34 35 34 35.1328125 35.8125 C35.13023437 36.534375 35.12765625 37.25625 35.125 38 C35.12886719 39.0828125 35.12886719 39.0828125 35.1328125 40.1875 C35 42 35 42 34 43 C31.47931819 43.08846834 28.98545583 43.11534524 26.46484375 43.09765625 C25.46378601 43.09614563 25.46378601 43.09614563 24.44250488 43.09460449 C21.9408192 43.08935808 19.43915794 43.07539691 16.9375 43.0625 C8.5534375 43.0315625 8.5534375 43.0315625 0 43 C0 28.81 0 14.62 0 0 Z " fill="#F1EEE8" transform="translate(565,680)"/>
<path d="M0 0 C2.25 0.08984375 2.25 0.08984375 5 1 C6.57875179 3.20367438 7.7834103 5.17377764 9 7.5625 C9.68594338 8.84458404 10.37343732 10.12583974 11.0625 11.40625 C11.39121094 12.02628906 11.71992187 12.64632813 12.05859375 13.28515625 C13.25334931 15.46149522 14.60887056 17.50742242 16 19.5625 C17.90797412 22.84183052 18.57685139 24.30815111 18 28 C15.86231472 25.4042393 13.88847966 22.82732335 12.0625 20 C9.53368921 16.32172976 6.62268424 13.34291109 3.1875 10.5 C1.49437657 8.36131777 1.93480117 6.6731522 2 4 C1.08431094 1.74867483 1.08431094 1.74867483 0 0 Z " fill="#19B0EF" transform="translate(606,330)"/>
<path d="M0 0 C0.99 0.33 1.98 0.66 3 1 C2.67 1.66 2.34 2.32 2 3 C2.66 3.33 3.32 3.66 4 4 C4.433125 5.11375 4.86625 6.2275 5.3125 7.375 C7.1151006 11.24725314 8.20754721 12.25752169 12 14 C12.33 12.35 12.66 10.7 13 9 C13.99 9 14.98 9 16 9 C15.32902328 13.19360449 13.1441606 16.40334352 11 20 C10.01 20 9.02 20 8 20 C7.68546875 19.43152344 7.3709375 18.86304688 7.046875 18.27734375 C6.40492188 17.11912109 6.40492188 17.11912109 5.75 15.9375 C5.29882812 15.11765625 4.84765625 14.2978125 4.3828125 13.453125 C3.53319076 11.94588643 2.65817372 10.45222869 1.7421875 8.984375 C-1.05052332 4.49260235 -1.05052332 4.49260235 -0.75 1.5625 C-0.5025 1.046875 -0.255 0.53125 0 0 Z " fill="#044D9D" transform="translate(504,471)"/>
<path d="M0 0 C1 3 1 3 -0.1640625 5.6953125 C-0.76992188 6.78585937 -1.37578125 7.87640625 -2 9 C-2.33483398 9.61198242 -2.66966797 10.22396484 -3.01464844 10.85449219 C-11.91860136 27.06342016 -11.91860136 27.06342016 -16 33 C-16.66 33 -17.32 33 -18 33 C-16.25858391 28.15305855 -13.76417324 23.7882299 -11.25 19.3125 C-10.80479004 18.51537598 -10.35958008 17.71825195 -9.90087891 16.89697266 C-6.70655777 11.20002778 -3.43430567 5.55631568 0 0 Z " fill="#128FDC" transform="translate(576,379)"/>
<path d="M0 0 C5.66153846 2.46153846 5.66153846 2.46153846 7.375 5.1875 C7.58125 5.785625 7.7875 6.38375 8 7 C7.01 7.495 7.01 7.495 6 8 C6.309375 8.7425 6.61875 9.485 6.9375 10.25 C7.8094925 12.50692176 8.47667007 14.6450153 9 17 C8.34 17.33 7.68 17.66 7 18 C5.02 14.37 3.04 10.74 1 7 C0.01 7.33 -0.98 7.66 -2 8 C-2.66 7.67 -3.32 7.34 -4 7 C-3.43628586 3.73045798 -2.50037734 2.17424117 0 0 Z " fill="#029DD3" transform="translate(448,374)"/>
<path d="M0 0 C1.32 0.66 2.64 1.32 4 2 C3.01 4.64 2.02 7.28 1 10 C0.01 10 -0.98 10 -2 10 C-2.28875 10.78375 -2.5775 11.5675 -2.875 12.375 C-4 15 -4 15 -6 17 C-6.69748583 18.31747324 -7.36959957 19.64914193 -8 21 C-8.66 20.01 -9.32 19.02 -10 18 C-8.68 15.36 -7.36 12.72 -6 10 C-5.34 10 -4.68 10 -4 10 C-3.8453125 9.195625 -3.8453125 9.195625 -3.6875 8.375 C-2.81907303 5.37497956 -1.44379704 2.7620465 0 0 Z " fill="#016AB0" transform="translate(340,462)"/>
<path d="M0 0 C1.921875 0.3515625 1.921875 0.3515625 4 1 C5.52164099 3.89111788 6 5.71823412 6 9 C5.34 9 4.68 9 4 9 C2.375 6.5 2.375 6.5 1 4 C-0.29376347 6.08205657 -1.58506554 8.16557304 -2.875 10.25 C-3.42220703 11.12978516 -3.42220703 11.12978516 -3.98046875 12.02734375 C-5.79285294 14.9601109 -7.53200267 17.87857411 -9 21 C-10 19 -10 19 -9.43359375 16.93359375 C-6.9604197 10.73611053 -3.91362642 5.40080447 0 0 Z " fill="#15E8F5" transform="translate(448,275)"/>
<path d="M0 0 C0.66 0.33 1.32 0.66 2 1 C1.67 1.66 1.34 2.32 1 3 C1.66 3.33 2.32 3.66 3 4 C1.88820837 7.33537489 0.52588702 8.63707344 -2 11 C-1.67 11.66 -1.34 12.32 -1 13 C-3.33333333 15.33333333 -5.66666667 17.66666667 -8 20 C-8.82193222 17.65942846 -9.16347293 16.4410801 -8.28735352 14.07714844 C-7.90506592 13.4277832 -7.52277832 12.77841797 -7.12890625 12.109375 C-6.71962891 11.40039062 -6.31035156 10.69140625 -5.88867188 9.9609375 C-5.45103516 9.23132813 -5.01339844 8.50171875 -4.5625 7.75 C-3.9118457 6.63238281 -3.9118457 6.63238281 -3.24804688 5.4921875 C-2.1763557 3.65500263 -1.08960023 1.82662026 0 0 Z " fill="#015098" transform="translate(329,481)"/>
<path d="M0 0 C4.12400627 3.75951656 6.45850599 8.69774198 9.1875 13.5 C9.74630859 14.46292969 10.30511719 15.42585938 10.88085938 16.41796875 C11.40873047 17.34222656 11.93660156 18.26648438 12.48046875 19.21875 C12.96410889 20.06373047 13.44774902 20.90871094 13.94604492 21.77929688 C15 24 15 24 15 27 C15.66 27.33 16.32 27.66 17 28 C16.34 28.66 15.68 29.32 15 30 C12.8526318 26.37688727 10.71679183 22.74730218 8.59130859 19.11132812 C7.8668919 17.87576819 7.13937513 16.64202036 6.40869141 15.41015625 C5.35796867 13.63750836 4.31862583 11.85860835 3.28125 10.078125 C2.33862305 8.47565918 2.33862305 8.47565918 1.37695312 6.84082031 C0 4 0 4 0 0 Z " fill="#019DE0" transform="translate(485,337)"/>
<path d="M0 0 C0.33 0.66 0.66 1.32 1 2 C-0.0480957 4.19897461 -0.0480957 4.19897461 -1.67578125 6.90234375 C-2.25650391 7.87494141 -2.83722656 8.84753906 -3.43554688 9.84960938 C-4.05494141 10.86861328 -4.67433594 11.88761719 -5.3125 12.9375 C-5.92029297 13.95263672 -6.52808594 14.96777344 -7.15429688 16.01367188 C-9.37868441 19.71934945 -11.602325 23.4034875 -14 27 C-14.66 27 -15.32 27 -16 27 C-13.88576271 21.42270186 -10.95586863 16.41579871 -8 11.25 C-7.4534375 10.27933594 -6.906875 9.30867188 -6.34375 8.30859375 C-5.8178125 7.38691406 -5.291875 6.46523438 -4.75 5.515625 C-4.27046875 4.67290039 -3.7909375 3.83017578 -3.296875 2.96191406 C-2 1 -2 1 0 0 Z " fill="#0096D7" transform="translate(410,443)"/>
<path d="M0 0 C2.62901288 1.52206009 4.84365964 2.84365964 7 5 C7 5.66 7 6.32 7 7 C7.66 7.66 8.32 8.32 9 9 C10.75 12.4375 10.75 12.4375 12 16 C11.34 16.99 10.68 17.98 10 19 C8.81333892 17.10134228 7.6274176 15.20228174 6.4453125 13.30078125 C5.49580576 11.78926917 4.53259656 10.28626232 3.5546875 8.79296875 C3.10351562 8.09816406 2.65234375 7.40335937 2.1875 6.6875 C1.76855469 6.05199219 1.34960938 5.41648437 0.91796875 4.76171875 C0 3 0 3 0 0 Z " fill="#0652A2" transform="translate(492,454)"/>
<path d="M0 0 C0.33 0.66 0.66 1.32 1 2 C0.67 2.99 0.34 3.98 0 5 C-0.66 5 -1.32 5 -2 5 C-2.24492187 5.84820312 -2.48984375 6.69640625 -2.7421875 7.5703125 C-4.11754788 11.32051876 -5.98381119 14.53081111 -8.125 17.875 C-8.49753906 18.46796875 -8.87007813 19.0609375 -9.25390625 19.671875 C-10.16365 21.1181343 -11.08103798 22.55958046 -12 24 C-13 22 -13 22 -12 18.5625 C-9.79303728 12.98863603 -6.63173306 7.76063322 -3 3 C-2.34 3 -1.68 3 -1 3 C-0.67 2.01 -0.34 1.02 0 0 Z " fill="#03B7E9" transform="translate(378,399)"/>
<path d="M0 0 C0.66 0.33 1.32 0.66 2 1 C-1.42185829 7.15934492 -5.1867108 13.07654796 -9 19 C-9.66 18.67 -10.32 18.34 -11 18 C-10.745504 16.51793505 -10.47088238 15.03931385 -10.1875 13.5625 C-10.03667969 12.73878906 -9.88585937 11.91507812 -9.73046875 11.06640625 C-9.48941406 10.38449219 -9.24835937 9.70257813 -9 9 C-8.01 8.67 -7.02 8.34 -6 8 C-4.34822227 6.34822227 -3.82747709 4.15144042 -3 2 C-2.34 2 -1.68 2 -1 2 C-0.67 1.34 -0.34 0.68 0 0 Z " fill="#0651A1" transform="translate(530,461)"/>
<path d="M0 0 C1.12618929 3.38409745 1.07678508 3.83557134 -0.546875 7.3125 C-1.26866616 8.5490981 -2.00357537 9.7781131 -2.75 11 C-3.1109375 11.61617188 -3.471875 12.23234375 -3.84375 12.8671875 C-7.65958942 19.30987289 -7.65958942 19.30987289 -10 22 C-10.66 22 -11.32 22 -12 22 C-10.2657267 17.02642312 -7.56672043 12.68501047 -4.875 8.1875 C-4.40707031 7.39923828 -3.93914062 6.61097656 -3.45703125 5.79882812 C-2.30784603 3.86397546 -1.15542997 1.93112772 0 0 Z " fill="#02C3EF" transform="translate(445,380)"/>
<path d="M0 0 C2.31 0 4.62 0 7 0 C6.979375 0.94875 6.95875 1.8975 6.9375 2.875 C6.77448174 5.90666283 6.77448174 5.90666283 8 8 C8.039992 9.99960012 8.04346799 12.00047242 8 14 C4.31534095 10.71012585 2.22105818 7.36279286 0 3 C0 2.01 0 1.02 0 0 Z " fill="#0D6BB2" transform="translate(632,472)"/>
<path d="M0 0 C0.99 0 1.98 0 3 0 C1.3003494 4.73474097 -1.13659027 8.96167111 -3.625 13.3125 C-4.04523438 14.05306641 -4.46546875 14.79363281 -4.8984375 15.55664062 C-5.92948495 17.37269011 -6.96436046 19.18656533 -8 21 C-8.33 21 -8.66 21 -9 21 C-9.33982505 16.76351444 -8.48399014 14.59943007 -6.1875 11.0625 C-3.89743446 7.44062329 -1.83314789 3.86997888 0 0 Z " fill="#0196D5" transform="translate(361,425)"/>
<path d="M0 0 C4.15702064 2.07851032 5.90018307 8.00141244 8 12 C8.639375 13.134375 9.27875 14.26875 9.9375 15.4375 C11.13271517 18.32007776 10.88370398 19.12948568 10 22 C8.50939242 19.46446145 7.03251938 16.92243874 5.5625 14.375 C5.14162109 13.66214844 4.72074219 12.94929688 4.28710938 12.21484375 C1.94499448 8.13019538 0.41502823 4.78414355 0 0 Z " fill="#127FD6" transform="translate(654,408)"/>
<path d="M0 0 C1.65 0.33 3.3 0.66 5 1 C3.43358249 5.30764815 1.31663844 9.06171464 -1 13 C-1.99 12.34 -2.98 11.68 -4 11 C-4.1875 8.375 -4.1875 8.375 -4 6 C-3.01 6 -2.02 6 -1 6 C-0.67 4.02 -0.34 2.04 0 0 Z " fill="#016BAF" transform="translate(379,489)"/>
<path d="M0 0 C0.33 0.66 0.66 1.32 1 2 C0.02059602 4.34205301 -0.98034573 6.67518826 -2 9 C-2 9.99 -2 10.98 -2 12 C-2.66 12 -3.32 12 -4 12 C-4.226875 12.7425 -4.45375 13.485 -4.6875 14.25 C-6.24407532 17.51139591 -8.08518854 18.92894975 -11 21 C-9.3003494 16.26525903 -6.86340973 12.03832889 -4.375 7.6875 C-3.95476562 6.94693359 -3.53453125 6.20636719 -3.1015625 5.44335938 C-2.07051505 3.62730989 -1.03563954 1.81343467 0 0 Z " fill="#054E90" transform="translate(504,402)"/>
<path d="M0 0 C1.32 1.32 2.64 2.64 4 4 C0.85281112 7.2682346 -2.49352499 10.1310659 -6 13 C-6 9.89448334 -5.4606285 8.64738916 -4 6 C-3.34 6 -2.68 6 -2 6 C-1.855625 5.195625 -1.71125 4.39125 -1.5625 3.5625 C-1 1 -1 1 0 0 Z " fill="#16A5E3" transform="translate(577,279)"/>
<path d="M0 0 C1.14453125 1.74609375 1.14453125 1.74609375 2 4 C1.13671875 6.03515625 1.13671875 6.03515625 -0.3125 8.0625 C-2.00713414 10.48141613 -3.05317841 12.15953523 -4 15 C-4.66 15 -5.32 15 -6 15 C-6.33 15.66 -6.66 16.32 -7 17 C-7.66 15.35 -8.32 13.7 -9 12 C-8.01 11.67 -7.02 11.34 -6 11 C-4.31250296 8.45327745 -4.31250296 8.45327745 -2.8125 5.4375 C-2.28269531 4.42558594 -1.75289063 3.41367187 -1.20703125 2.37109375 C-0.80871094 1.58863281 -0.41039062 0.80617188 0 0 Z " fill="#044D8F" transform="translate(492,423)"/>
<path d="M0 0 C2.76544722 3.45680903 4.84921278 7.14341602 7 11 C7.99 11 8.98 11 10 11 C10.33 12.32 10.66 13.64 11 15 C10.01 15.33 9.02 15.66 8 16 C7.54625 15.525625 7.0925 15.05125 6.625 14.5625 C5.06741796 12.90972192 5.06741796 12.90972192 3 12 C2.4375 10.125 2.4375 10.125 2 8 C1.67 7.01 1.34 6.02 1 5 C0.34 4.67 -0.32 4.34 -1 4 C-0.67 2.68 -0.34 1.36 0 0 Z " fill="#05C6F0" transform="translate(461,299)"/>
<path d="M0 0 C0.99 0.99 1.98 1.98 3 3 C2.67 3.99 2.34 4.98 2 6 C-0.0625 6.6875 -0.0625 6.6875 -2 7 C-2.33 9.31 -2.66 11.62 -3 14 C-4.32 14.33 -5.64 14.66 -7 15 C-5.45454854 9.52067211 -2.84456788 4.88570819 0 0 Z " fill="#07CDF5" transform="translate(442,289)"/>
<path d="M0 0 C0.99 0 1.98 0 3 0 C4.7890625 2.4140625 4.7890625 2.4140625 6.625 5.625 C7.23601563 6.66914063 7.84703125 7.71328125 8.4765625 8.7890625 C9.97421122 11.94564519 10.61621233 14.545911 11 18 C7.73171993 15.21629142 5.87542089 11.56811335 3.8125 7.875 C3.44447266 7.22917969 3.07644531 6.58335937 2.69726562 5.91796875 C0 1.14395872 0 1.14395872 0 0 Z " fill="#1491E1" transform="translate(644,394)"/>
<path d="M0 0 C0.66 0.33 1.32 0.66 2 1 C1.26277589 2.92161695 0.50965305 4.8371387 -0.25 6.75 C-0.87648438 8.35101563 -0.87648438 8.35101563 -1.515625 9.984375 C-2.99892631 12.99781871 -4.49731681 14.79678317 -7 17 C-7 15.35 -7 13.7 -7 12 C-6.34 12 -5.68 12 -5 12 C-4.9175 11.319375 -4.835 10.63875 -4.75 9.9375 C-3.77667472 6.1253093 -2.04192545 3.35929671 0 0 Z " fill="#18C1EF" transform="translate(573,280)"/>
<path d="M0 0 C1.60031344 3.20062687 0.03173691 5.72271806 -1 9 C-1.99 9 -2.98 9 -4 9 C-4.33 9.99 -4.66 10.98 -5 12 C-6 10 -6 10 -5.546875 8.125 C-5.28390625 7.42375 -5.0209375 6.7225 -4.75 6 C-4.49734375 5.29875 -4.2446875 4.5975 -3.984375 3.875 C-3 2 -3 2 0 0 Z " fill="#1AB8EE" transform="translate(564,299)"/>
<path d="M0 0 C4.06124391 1.35374797 4.60315649 3.26258828 6.6875 6.9375 C7.31011719 8.01902344 7.93273437 9.10054688 8.57421875 10.21484375 C10 13 10 13 10 15 C9.34 15 8.68 15 8 15 C6.52690889 12.89980986 5.18690365 10.82232271 3.875 8.625 C3.50246094 8.02171875 3.12992188 7.4184375 2.74609375 6.796875 C0 2.27034684 0 2.27034684 0 0 Z " fill="#117ED1" transform="translate(608,431)"/>
<path d="M0 0 C2.63884562 2.40111178 4.36413529 5.00555028 6.1875 8.0625 C6.71730469 8.94035156 7.24710938 9.81820313 7.79296875 10.72265625 C9 13 9 13 9 15 C5.14134031 13.54063512 3.99679238 11.73399879 2.25 8.0625 C1.82203125 7.18722656 1.3940625 6.31195313 0.953125 5.41015625 C0 3 0 3 0 0 Z " fill="#159CE5" transform="translate(579,379)"/>
<path d="M0 0 C1.75 0.0625 1.75 0.0625 4 1 C5.72518887 3.25123006 6.76906007 5.40134903 8 8 C7.67 8.66 7.34 9.32 7 10 C6.01 10 5.02 10 4 10 C2.5393715 7.35261084 2 6.10551666 2 3 C1.34 3 0.68 3 0 3 C0 2.01 0 1.02 0 0 Z " fill="#0B62AC" transform="translate(682,461)"/>
<path d="M0 0 C0.66 0 1.32 0 2 0 C2.185625 0.9590625 2.185625 0.9590625 2.375 1.9375 C2.684375 2.9584375 2.684375 2.9584375 3 4 C3.66 4.33 4.32 4.66 5 5 C5 5.66 5 6.32 5 7 C4.34 7 3.68 7 3 7 C3.66 7.66 4.32 8.32 5 9 C5.66 8.67 6.32 8.34 7 8 C6.67 9.98 6.34 11.96 6 14 C2.51542459 10.98003464 1.16126465 8.45151448 0 4 C0 2.66666667 0 1.33333333 0 0 Z " fill="#08589E" transform="translate(486,440)"/>
<path d="M0 0 C2.46717524 2.2639961 4.10134139 4.59060244 5.75 7.5 C6.42289062 8.66015625 6.42289062 8.66015625 7.109375 9.84375 C8 12 8 12 7 15 C2.97805546 10.28461674 0 6.33797061 0 0 Z " fill="#02B9EE" transform="translate(449,377)"/>
<path d="M0 0 C0.99 0.33 1.98 0.66 3 1 C2.67 1.66 2.34 2.32 2 3 C2.66 3.33 3.32 3.66 4 4 C4.72159424 5.64363134 5.39351421 7.31050386 6 9 C5.34 9 4.68 9 4 9 C3.67 9.66 3.34 10.32 3 11 C-1.06153846 4.6 -1.06153846 4.6 -0.75 1.5625 C-0.5025 1.046875 -0.255 0.53125 0 0 Z " fill="#044996" transform="translate(504,471)"/>
<path d="M0 0 C1 3 1 3 -0.25 5.875 C-0.8275 6.90625 -1.405 7.9375 -2 9 C-2.7425 10.3921875 -2.7425 10.3921875 -3.5 11.8125 C-5 14 -5 14 -8 15 C-6.62712658 11.30123909 -4.93644547 8.0485524 -2.875 4.6875 C-2.33617187 3.80449219 -1.79734375 2.92148437 -1.2421875 2.01171875 C-0.83226562 1.34785156 -0.42234375 0.68398438 0 0 Z " fill="#1498E7" transform="translate(576,379)"/>
<path d="M0 0 C0.99 0 1.98 0 3 0 C1.43358249 4.30764815 -0.68336156 8.06171464 -3 12 C-3.66 11.67 -4.32 11.34 -5 11 C-3.78310457 6.97488434 -2.50546238 3.40742883 0 0 Z " fill="#03CBEE" transform="translate(392,371)"/>
<path d="M0 0 C2.56995074 1.28497537 2.90434463 2.49912373 4.125 5.0625 C4.47820313 5.79597656 4.83140625 6.52945312 5.1953125 7.28515625 C5.46085938 7.85105469 5.72640625 8.41695313 6 9 C4.02 9 2.04 9 0 9 C0.33 7.68 0.66 6.36 1 5 C0.34 5 -0.32 5 -1 5 C-0.67 3.35 -0.34 1.7 0 0 Z " fill="#07539A" transform="translate(702,492)"/>
<path d="M0 0 C0.33 0.66 0.66 1.32 1 2 C-0.109375 4.34765625 -0.109375 4.34765625 -1.75 7.0625 C-2.28109375 7.96097656 -2.8121875 8.85945313 -3.359375 9.78515625 C-5 12 -5 12 -8 13 C-4 2 -4 2 0 0 Z " fill="#00A3DF" transform="translate(410,443)"/>
<path d="M0 0 C1.875 0.1875 1.875 0.1875 4 1 C5.52164099 3.89111788 6 5.71823412 6 9 C5.34 9 4.68 9 4 9 C2.375 6.5 2.375 6.5 1 4 C0.01 4.99 -0.98 5.98 -2 7 C-1.34 4.69 -0.68 2.38 0 0 Z " fill="#1EF3FB" transform="translate(448,275)"/>
<path d="M0 0 C0.66 0 1.32 0 2 0 C1.51675181 5.15464734 -1.18610761 8.81550319 -4 13 C-5 11 -5 11 -4.51171875 9.16015625 C-4.23972656 8.46792969 -3.96773438 7.77570313 -3.6875 7.0625 C-3.42324219 6.37285156 -3.15898437 5.68320312 -2.88671875 4.97265625 C-2 3 -2 3 0 0 Z " fill="#01ACE4" transform="translate(370,410)"/>
<path d="M0 0 C2.61500768 2.36595933 4.38999603 4.86049226 6 8 C5.67 8.66 5.34 9.32 5 10 C2.5625 8.875 2.5625 8.875 0 7 C-0.875 3.875 -0.875 3.875 -1 1 C-0.67 0.67 -0.34 0.34 0 0 Z " fill="#168DD1" transform="translate(609,334)"/>
<path d="M0 0 C2.95749791 3.46741134 5.07848152 6.86873527 7 11 C6.34 11.66 5.68 12.32 5 13 C3.96953278 11.21385682 2.95086764 9.42089982 1.9375 7.625 C1.36902344 6.62726563 0.80054688 5.62953125 0.21484375 4.6015625 C-0.18605469 3.74304688 -0.58695312 2.88453125 -1 2 C-0.67 1.34 -0.34 0.68 0 0 Z " fill="#03C6F2" transform="translate(479,326)"/>
<path d="M0 0 C1 3 1 3 -0.4375 6.1875 C-1.2109375 7.5796875 -1.2109375 7.5796875 -2 9 C-2.66 9 -3.32 9 -4 9 C-4.103125 9.78375 -4.20625 10.5675 -4.3125 11.375 C-5 14 -5 14 -8 16 C-6.42986223 10.03347646 -3.24970218 5.17090975 0 0 Z " fill="#04C4EE" transform="translate(432,307)"/>
<path d="M0 0 C7 8.44827586 7 8.44827586 7 12 C3.78294877 10.89067199 3.02553287 10.04539176 1.3125 7 C0.879375 6.01 0.44625 5.02 0 4 C-0.33 3.34 -0.66 2.68 -1 2 C-0.67 1.34 -0.34 0.68 0 0 Z " fill="#029EE1" transform="translate(458,393)"/>
<path d="M0 0 C0.33 0.66 0.66 1.32 1 2 C-0.1875 5.0625 -0.1875 5.0625 -2 8 C-4.0625 8.75 -4.0625 8.75 -6 9 C-6.66 9.66 -7.32 10.32 -8 11 C-7.6875 8.625 -7.6875 8.625 -7 6 C-6.01 5.34 -5.02 4.68 -4 4 C-3.67 4.33 -3.34 4.66 -3 5 C-2.01 3.35 -1.02 1.7 0 0 Z " fill="#01A1D3" transform="translate(384,391)"/>
<path d="M0 0 C0.33 0.66 0.66 1.32 1 2 C-0.21484375 4.3828125 -0.21484375 4.3828125 -1.9375 7.125 C-2.50339844 8.03507812 -3.06929688 8.94515625 -3.65234375 9.8828125 C-4.09707031 10.58148438 -4.54179687 11.28015625 -5 12 C-5.97918775 8.92443042 -6.1498998 8.31407577 -4.6875 5.25 C-4.130625 4.5075 -3.57375 3.765 -3 3 C-2.34 3 -1.68 3 -1 3 C-0.67 2.01 -0.34 1.02 0 0 Z " fill="#02C0EE" transform="translate(386,385)"/>
<path d="M0 0 C0.66 0 1.32 0 2 0 C0.68139111 4.61513112 -1.21355437 8.09897612 -4 12 C-4.9435441 9.46100862 -5.16906025 8.39090725 -4.07421875 5.859375 C-3.61660156 5.16328125 -3.15898438 4.4671875 -2.6875 3.75 C-2.23761719 3.04359375 -1.78773438 2.3371875 -1.32421875 1.609375 C-0.88722656 1.07828125 -0.45023438 0.5471875 0 0 Z " fill="#0E86D6" transform="translate(519,376)"/>
<path d="M0 0 C1.65 0 3.3 0 5 0 C4.979375 0.9075 4.95875 1.815 4.9375 2.75 C4.9889755 5.42672588 5.2215017 7.46988052 6 10 C3.38275905 7.63202009 1.67138271 5.10399646 0 2 C0 1.34 0 0.68 0 0 Z " fill="#0D5AA0" transform="translate(634,472)"/>
<path d="M0 0 C0.99 0 1.98 0 3 0 C1.66511872 3.59391114 0.03977277 6.75490696 -2 10 C-2.66 9.67 -3.32 9.34 -4 9 C-3.71125 8.443125 -3.4225 7.88625 -3.125 7.3125 C-1.9586747 4.91505355 -0.9660119 2.48403061 0 0 Z " fill="#00AAE2" transform="translate(361,425)"/>
<path d="M0 0 C1 3 1 3 0.00390625 5.26171875 C-0.47175781 6.06222656 -0.94742188 6.86273438 -1.4375 7.6875 C-2.14712891 8.89986328 -2.14712891 8.89986328 -2.87109375 10.13671875 C-3.24363281 10.75160156 -3.61617187 11.36648438 -4 12 C-4.66 12 -5.32 12 -6 12 C-4.43358249 7.69235185 -2.31663844 3.93828536 0 0 Z " fill="#1081D5" transform="translate(556,414)"/>
<path d="M0 0 C0.66 0.33 1.32 0.66 2 1 C2.6328125 2.92578125 2.6328125 2.92578125 3.125 5.3125 C3.29257812 6.09238281 3.46015625 6.87226563 3.6328125 7.67578125 C4 10 4 10 4 14 C2 12 2 12 1.5 8.4375 C1.335 7.303125 1.17 6.16875 1 5 C0.34 4.67 -0.32 4.34 -1 4 C-0.34 4 0.32 4 1 4 C0.67 2.68 0.34 1.36 0 0 Z " fill="#17A4E4" transform="translate(598,310)"/>
<path d="M0 0 C0.99 0.33 1.98 0.66 3 1 C1.73113036 2.12721436 0.45982438 3.25168658 -0.8125 4.375 C-1.52019531 5.00148438 -2.22789062 5.62796875 -2.95703125 6.2734375 C-5 8 -5 8 -8 10 C-6.56854369 4.98990293 -4.17048478 2.89380576 0 0 Z " fill="#F6F5F3" transform="translate(465,680)"/>
<path d="M0 0 C2 1 2 1 3.25 3.375 C3.4975 4.24125 3.745 5.1075 4 6 C3.01 7.485 3.01 7.485 2 9 C0.68 7.02 -0.64 5.04 -2 3 C-1 1 -1 1 0 0 Z " fill="#044B9A" transform="translate(500,464)"/>
<path d="M0 0 C1.65 1.65 3.3 3.3 5 5 C4.67 5.99 4.34 6.98 4 8 C2.68 7.67 1.36 7.34 0 7 C0 6.01 0 5.02 0 4 C-0.66 3.67 -1.32 3.34 -2 3 C-1.34 2.01 -0.68 1.02 0 0 Z " fill="#0367A9" transform="translate(510,380)"/>
<path d="M0 0 C1.98 0 3.96 0 6 0 C6.93065133 2.60582371 7.14917407 3.64198224 6.0625 6.25 C5.5365625 7.11625 5.5365625 7.11625 5 8 C5 6.02 5 4.04 5 2 C3.02 2 1.04 2 -1 2 C-0.67 1.34 -0.34 0.68 0 0 Z " fill="#DCE1DD" transform="translate(593,713)"/>
<path d="M0 0 C0.99 0.33 1.98 0.66 3 1 C4.1875 4.0625 4.1875 4.0625 5 7 C3.35 7 1.7 7 0 7 C0 4.69 0 2.38 0 0 Z " fill="#147CC3" transform="translate(632,376)"/>
<path d="M0 0 C0 4.24645065 -1.81750806 6.38524772 -4 10 C-4.6875 8.3125 -4.6875 8.3125 -5 6 C-2.73846154 1.36923077 -2.73846154 1.36923077 0 0 Z " fill="#04D2F3" transform="translate(401,359)"/>
<path d="M0 0 C0.83154245 2.32831887 1.12153694 3.6110818 0.375 6 C-1.38349554 8.5578117 -3.51402387 10.16822811 -6 12 C-4.43358249 7.69235185 -2.31663844 3.93828536 0 0 Z " fill="#03B9E7" transform="translate(416,335)"/>
<path d="M0 0 C0.99 0 1.98 0 3 0 C6 4.22222222 6 4.22222222 6 7 C5.01 7 4.02 7 3 7 C0.64276511 4.46815512 0 3.52809907 0 0 Z " fill="#016CB0" transform="translate(472,419)"/>
<path d="M0 0 C2.33333823 2.12121657 3.9148886 4.01594365 5 7 C4.625 9.25 4.625 9.25 4 11 C0 4.5 0 4.5 0 0 Z " fill="#01ADE9" transform="translate(485,337)"/>
<path d="M0 0 C0.33 0 0.66 0 1 0 C1.41176754 3.60296594 1.1535853 4.78402067 -1 7.8125 C-1.66 8.534375 -2.32 9.25625 -3 10 C-3.66 9.67 -4.32 9.34 -5 9 C-3.35 6.03 -1.7 3.06 0 0 Z " fill="#1595D8" transform="translate(559,310)"/>
<path d="M0 0 C0.99 0 1.98 0 3 0 C2.67 1.65 2.34 3.3 2 5 C1.34 5 0.68 5 0 5 C-0.33 5.66 -0.66 6.32 -1 7 C-1.66 7 -2.32 7 -3 7 C-1.125 2.25 -1.125 2.25 0 0 Z " fill="#0DD5FB" transform="translate(446,282)"/>
<path d="M0 0 C2.475 0.99 2.475 0.99 5 2 C4.34 3.65 3.68 5.3 3 7 C2.01 6.34 1.02 5.68 0 5 C-0.1875 2.375 -0.1875 2.375 0 0 Z " fill="#005C9F" transform="translate(375,495)"/>
<path d="M0 0 C2.475 0.495 2.475 0.495 5 1 C5.66 2.98 6.32 4.96 7 7 C6.34 7 5.68 7 5 7 C0 1.4047619 0 1.4047619 0 0 Z " fill="#1BA4E4" transform="translate(606,330)"/>
<path d="M0 0 C0.66 0.66 1.32 1.32 2 2 C0.02 4.64 -1.96 7.28 -4 10 C-4.33 9.34 -4.66 8.68 -5 8 C-4.00390625 6.0546875 -4.00390625 6.0546875 -2.5625 3.875 C-2.08941406 3.15054687 -1.61632812 2.42609375 -1.12890625 1.6796875 C-0.75636719 1.12539063 -0.38382812 0.57109375 0 0 Z " fill="#04BFEB" transform="translate(422,325)"/>
<path d="M0 0 C1.5625 1.125 1.5625 1.125 3 3 C2.6875 6.1875 2.6875 6.1875 2 9 C-0.0625 6.6875 -0.0625 6.6875 -2 4 C-1.67 3.01 -1.34 2.02 -1 1 C-0.67 1.33 -0.34 1.66 0 2 C0 1.34 0 0.68 0 0 Z " fill="#0D61B3" transform="translate(623,452)"/>
<path d="M0 0 C3 1 3 1 5 4 C4.625 6.1875 4.625 6.1875 4 8 C0 2.25 0 2.25 0 0 Z " fill="#0F74D0" transform="translate(671,440)"/>
<path d="M0 0 C1.32 0.66 2.64 1.32 4 2 C3.67 2.99 3.34 3.98 3 5 C0.03 4.505 0.03 4.505 -3 4 C-2.01 2.68 -1.02 1.36 0 0 Z " fill="#167FC5" transform="translate(576,376)"/>
<path d="M0 0 C-0.33 1.65 -0.66 3.3 -1 5 C-1.99 5 -2.98 5 -4 5 C-4.33 4.01 -4.66 3.02 -5 2 C-2 0 -2 0 0 0 Z " fill="#00A9DE" transform="translate(449,376)"/>
<path d="M0 0 C0.66 0.33 1.32 0.66 2 1 C1.67 1.66 1.34 2.32 1 3 C1.66 3.33 2.32 3.66 3 4 C2.67 4.99 2.34 5.98 2 7 C1.01 7 0.02 7 -1 7 C-2 4 -2 4 -1.0625 1.8125 C-0.5365625 0.9153125 -0.5365625 0.9153125 0 0 Z " fill="#005BA0" transform="translate(329,481)"/>
<path d="M0 0 C0.66 0 1.32 0 2 0 C1.50168276 3.68754757 0.89932357 5.60490662 -2 8 C-1.125 2.25 -1.125 2.25 0 0 Z " fill="#0F8EDB" transform="translate(524,366)"/>
<path d="M0 0 C0.99 0 1.98 0 3 0 C1.81323934 4.10801767 1.10551666 5.89448334 -2 9 C-1.34 6.03 -0.68 3.06 0 0 Z " fill="#08ECFA" transform="translate(424,315)"/>
<path d="M0 0 C3.41158256 1.13719419 4.11854601 2.04342944 6 5 C6 5.66 6 6.32 6 7 C5.01 7 4.02 7 3 7 C0 2.77777778 0 2.77777778 0 0 Z " fill="#18EEFB" transform="translate(454,285)"/>
<path d="M0 0 C0.66 0.33 1.32 0.66 2 1 C1.67 3.64 1.34 6.28 1 9 C0.01 9 -0.98 9 -2 9 C-1.34 6.03 -0.68 3.06 0 0 Z " fill="#044990" transform="translate(521,470)"/>
<path d="M0 0 C0.66 0.33 1.32 0.66 2 1 C1.34 2.98 0.68 4.96 0 7 C-0.99 7 -1.98 7 -3 7 C-1.125 2.25 -1.125 2.25 0 0 Z " fill="#015E9B" transform="translate(341,465)"/>
<path d="M0 0 C3.93846154 4.30769231 3.93846154 4.30769231 4.25 7.8125 C4.1675 8.534375 4.085 9.25625 4 10 C0.06153846 5.69230769 0.06153846 5.69230769 -0.25 2.1875 C-0.1675 1.465625 -0.085 0.74375 0 0 Z " fill="#0C70C9" transform="translate(625,458)"/>
<path d="M0 0 C1.9375 0.5625 1.9375 0.5625 4 2 C4.75 5.625 4.75 5.625 5 9 C2.67527795 6.14693203 1.2491742 3.45925163 0 0 Z " fill="#0E6FD0" transform="translate(676,449)"/>
<path d="M0 0 C0.625 1.8125 0.625 1.8125 1 4 C0.01 5.485 0.01 5.485 -1 7 C-1.99 5.02 -2.98 3.04 -4 1 C-2 0 -2 0 0 0 Z " fill="#1479C1" transform="translate(592,392)"/>
<path d="M0 0 C0.6875 1.75 0.6875 1.75 1 4 C-0.3125 6.25 -0.3125 6.25 -2 8 C-2.66 8 -3.32 8 -4 8 C-2.87548273 5.0280615 -1.77706209 2.66559313 0 0 Z " fill="#03CFF5" transform="translate(445,380)"/>
<path d="M0 0 C0.99 0 1.98 0 3 0 C1.81323934 4.10801767 1.10551666 5.89448334 -2 9 C-1.34 6.03 -0.68 3.06 0 0 Z " fill="#05E8FB" transform="translate(416,329)"/>
</svg>
